{
	"asset":{
		"generator":"Khronos glTF Blender I/O v4.1.63",
		"version":"2.0"
	},
	"extensionsUsed":[
		"KHR_materials_specular"
	],
	"scene":0,
	"scenes":[
		{
			"name":"Scene",
			"nodes":[
				0,
				1,
				2,
				3,
				4,
				5,
				6,
				7,
				8,
				9,
				10,
				11,
				12,
				13,
				14,
				15,
				16,
				17,
				18,
				19,
				20,
				21,
				22,
				23,
				24,
				25,
				26,
				27,
				28,
				29,
				30,
				31,
				32,
				33,
				34,
				35,
				36,
				37,
				38,
				39,
				40,
				41,
				42,
				43,
				44,
				45,
				46,
				47,
				48,
				49,
				50
			]
		}
	],
	"nodes":[
		{
			"mesh":0,
			"name":"Cube",
			"rotation":[
				0.7071068286895752,
				0,
				0,
				0.7071068286895752
			]
		},
		{
			"mesh":1,
			"name":"Cube.001",
			"rotation":[
				0.7071068286895752,
				0,
				0,
				0.7071068286895752
			]
		},
		{
			"mesh":2,
			"name":"Cube.002",
			"rotation":[
				0.7071068286895752,
				0,
				0,
				0.7071068286895752
			]
		},
		{
			"mesh":3,
			"name":"Cube.003",
			"rotation":[
				0.7071068286895752,
				0,
				0,
				0.7071068286895752
			]
		},
		{
			"mesh":4,
			"name":"Cube.004",
			"rotation":[
				0.7071068286895752,
				0,
				0,
				0.7071068286895752
			]
		},
		{
			"mesh":5,
			"name":"Cube.005",
			"rotation":[
				0.7071068286895752,
				0,
				0,
				0.7071068286895752
			]
		},
		{
			"mesh":6,
			"name":"Cube.006",
			"rotation":[
				0.7071068286895752,
				0,
				0,
				0.7071068286895752
			]
		},
		{
			"mesh":7,
			"name":"Cube.007",
			"rotation":[
				0.7071068286895752,
				0,
				0,
				0.7071068286895752
			]
		},
		{
			"mesh":8,
			"name":"Cube.008",
			"rotation":[
				0.7071068286895752,
				0,
				0,
				0.7071068286895752
			]
		},
		{
			"mesh":9,
			"name":"Cube.009",
			"rotation":[
				0.7071068286895752,
				0,
				0,
				0.7071068286895752
			]
		},
		{
			"mesh":10,
			"name":"Cube.010",
			"rotation":[
				0.7071068286895752,
				0,
				0,
				0.7071068286895752
			]
		},
		{
			"mesh":11,
			"name":"Cube.011",
			"rotation":[
				0.7071068286895752,
				0,
				0,
				0.7071068286895752
			]
		},
		{
			"mesh":12,
			"name":"Cube.012",
			"rotation":[
				0.7071068286895752,
				0,
				0,
				0.7071068286895752
			]
		},
		{
			"mesh":13,
			"name":"Cube.013",
			"rotation":[
				0.7071068286895752,
				0,
				0,
				0.7071068286895752
			]
		},
		{
			"mesh":14,
			"name":"Cube.014",
			"rotation":[
				0.7071068286895752,
				0,
				0,
				0.7071068286895752
			]
		},
		{
			"mesh":15,
			"name":"Cube.015",
			"rotation":[
				0.7071068286895752,
				0,
				0,
				0.7071068286895752
			]
		},
		{
			"mesh":16,
			"name":"Cube.016",
			"rotation":[
				0.7071068286895752,
				0,
				0,
				0.7071068286895752
			]
		},
		{
			"mesh":17,
			"name":"Cube.017",
			"rotation":[
				0.7071068286895752,
				0,
				0,
				0.7071068286895752
			]
		},
		{
			"mesh":18,
			"name":"Cube.018",
			"rotation":[
				0.7071068286895752,
				0,
				0,
				0.7071068286895752
			]
		},
		{
			"mesh":19,
			"name":"Cube.019",
			"rotation":[
				0.7071068286895752,
				0,
				0,
				0.7071068286895752
			]
		},
		{
			"mesh":20,
			"name":"Cube.020",
			"rotation":[
				0.7071068286895752,
				0,
				0,
				0.7071068286895752
			]
		},
		{
			"mesh":21,
			"name":"Cube.021",
			"rotation":[
				0.7071068286895752,
				0,
				0,
				0.7071068286895752
			]
		},
		{
			"mesh":22,
			"name":"Cube.022",
			"rotation":[
				0.7071068286895752,
				0,
				0,
				0.7071068286895752
			]
		},
		{
			"mesh":23,
			"name":"Cube.023",
			"rotation":[
				0.7071068286895752,
				0,
				0,
				0.7071068286895752
			]
		},
		{
			"mesh":24,
			"name":"Cube.024",
			"rotation":[
				0.7071068286895752,
				0,
				0,
				0.7071068286895752
			]
		},
		{
			"mesh":25,
			"name":"Cube.025",
			"rotation":[
				0.7071068286895752,
				0,
				0,
				0.7071068286895752
			]
		},
		{
			"mesh":26,
			"name":"Cube.026",
			"rotation":[
				0.7071068286895752,
				0,
				0,
				0.7071068286895752
			]
		},
		{
			"mesh":27,
			"name":"Cube.027",
			"rotation":[
				0.7071068286895752,
				0,
				0,
				0.7071068286895752
			]
		},
		{
			"mesh":28,
			"name":"Cube.028",
			"rotation":[
				0.7071068286895752,
				0,
				0,
				0.7071068286895752
			]
		},
		{
			"mesh":29,
			"name":"Cube.029",
			"rotation":[
				0.7071068286895752,
				0,
				0,
				0.7071068286895752
			]
		},
		{
			"mesh":30,
			"name":"Cube.030",
			"rotation":[
				0.7071068286895752,
				0,
				0,
				0.7071068286895752
			]
		},
		{
			"mesh":31,
			"name":"Cube.031",
			"rotation":[
				0.7071068286895752,
				0,
				0,
				0.7071068286895752
			]
		},
		{
			"mesh":32,
			"name":"Cube.032",
			"rotation":[
				0.7071068286895752,
				0,
				0,
				0.7071068286895752
			]
		},
		{
			"mesh":33,
			"name":"Cube.033",
			"rotation":[
				0.7071068286895752,
				0,
				0,
				0.7071068286895752
			]
		},
		{
			"mesh":34,
			"name":"Cube.034",
			"rotation":[
				0.7071068286895752,
				0,
				0,
				0.7071068286895752
			]
		},
		{
			"mesh":35,
			"name":"map04",
			"rotation":[
				0.7071068286895752,
				0,
				0,
				0.7071068286895752
			]
		},
		{
			"mesh":36,
			"name":"map04.001",
			"rotation":[
				0.7071068286895752,
				0,
				0,
				0.7071068286895752
			]
		},
		{
			"mesh":37,
			"name":"\u041a\u0443\u0431",
			"rotation":[
				0.7071068286895752,
				0,
				0,
				0.7071068286895752
			]
		},
		{
			"mesh":38,
			"name":"\u041a\u0443\u0431.001",
			"rotation":[
				0.7071068286895752,
				0,
				0,
				0.7071068286895752
			]
		},
		{
			"mesh":39,
			"name":"\u041a\u0443\u0431.002",
			"rotation":[
				0.7071068286895752,
				0,
				0,
				0.7071068286895752
			]
		},
		{
			"mesh":40,
			"name":"\u041a\u0443\u0431.003",
			"rotation":[
				0.7071068286895752,
				0,
				0,
				0.7071068286895752
			]
		},
		{
			"mesh":41,
			"name":"\u041a\u0443\u0431.004",
			"rotation":[
				0.7071068286895752,
				0,
				0,
				0.7071068286895752
			]
		},
		{
			"mesh":42,
			"name":"\u041a\u0443\u0431.005",
			"rotation":[
				0.7071068286895752,
				0,
				0,
				0.7071068286895752
			]
		},
		{
			"mesh":43,
			"name":"\u041a\u0443\u0431.006",
			"rotation":[
				0.7071068286895752,
				0,
				0,
				0.7071068286895752
			]
		},
		{
			"mesh":44,
			"name":"\u041a\u0443\u0431.007",
			"rotation":[
				0.7071068286895752,
				0,
				0,
				0.7071068286895752
			]
		},
		{
			"mesh":45,
			"name":"\u041a\u0443\u0431.008",
			"rotation":[
				0.7071068286895752,
				0,
				0,
				0.7071068286895752
			]
		},
		{
			"mesh":46,
			"name":"\u041a\u0443\u0431.009",
			"rotation":[
				0.7071068286895752,
				0,
				0,
				0.7071068286895752
			]
		},
		{
			"mesh":47,
			"name":"\u041a\u0443\u0431.010",
			"rotation":[
				0.7071068286895752,
				0,
				0,
				0.7071068286895752
			]
		},
		{
			"mesh":48,
			"name":"\u041f\u043b\u043e\u0441\u043a\u043e\u0441\u0442\u044c.001",
			"rotation":[
				0.7071068286895752,
				0,
				0,
				0.7071068286895752
			]
		},
		{
			"mesh":49,
			"name":"\u041f\u043b\u043e\u0441\u043a\u043e\u0441\u0442\u044c.002",
			"rotation":[
				0.7071068286895752,
				0,
				0,
				0.7071068286895752
			]
		},
		{
			"mesh":50,
			"name":"\u0421\u0444\u0435\u0440\u0430",
			"rotation":[
				0.7071068286895752,
				0,
				0,
				0.7071068286895752
			]
		}
	],
	"materials":[
		{
			"doubleSided":true,
			"name":"Material.005",
			"pbrMetallicRoughness":{
				"baseColorFactor":[
					0.800000011920929,
					0.800000011920929,
					0.800000011920929,
					1
				],
				"metallicFactor":0,
				"roughnessFactor":0.5
			}
		},
		{
			"alphaMode":"BLEND",
			"doubleSided":true,
			"name":"\u041c\u0430\u0442\u0435\u0440\u0438\u0430\u043b.014",
			"pbrMetallicRoughness":{
				"baseColorFactor":[
					0.8000860214233398,
					0,
					0.0014720000326633453,
					0.5
				],
				"metallicFactor":0,
				"roughnessFactor":0.5
			}
		},
		{
			"doubleSided":true,
			"name":"Material.006",
			"pbrMetallicRoughness":{
				"baseColorFactor":[
					0.007424999959766865,
					0.8007429838180542,
					0.5675730109214783,
					1
				],
				"metallicFactor":0,
				"roughnessFactor":0.5
			}
		},
		{
			"alphaMode":"BLEND",
			"doubleSided":true,
			"name":"\u041c\u0430\u0442\u0435\u0440\u0438\u0430\u043b.015",
			"pbrMetallicRoughness":{
				"baseColorFactor":[
					0.02604600042104721,
					0.07458899915218353,
					0.8001109957695007,
					0.5
				],
				"metallicFactor":0,
				"roughnessFactor":0.5
			}
		},
		{
			"doubleSided":true,
			"name":"\u041c\u0430\u0442\u0435\u0440\u0438\u0430\u043b.016",
			"pbrMetallicRoughness":{
				"baseColorFactor":[
					0.022305000573396683,
					0.1352829933166504,
					0.801052987575531,
					1
				],
				"metallicFactor":0,
				"roughnessFactor":0.5
			}
		},
		{
			"doubleSided":true,
			"name":"Material.007",
			"pbrMetallicRoughness":{
				"baseColorFactor":[
					0.800000011920929,
					0.800000011920929,
					0.800000011920929,
					1
				],
				"metallicFactor":0,
				"roughnessFactor":0.5
			}
		},
		{
			"alphaMode":"BLEND",
			"doubleSided":true,
			"name":"\u041c\u0430\u0442\u0435\u0440\u0438\u0430\u043b.017",
			"pbrMetallicRoughness":{
				"baseColorFactor":[
					0.8000860214233398,
					0,
					0.0014720000326633453,
					0.5
				],
				"metallicFactor":0,
				"roughnessFactor":0.5
			}
		},
		{
			"doubleSided":true,
			"name":"Material.008",
			"pbrMetallicRoughness":{
				"baseColorFactor":[
					0.007424999959766865,
					0.8007429838180542,
					0.5675730109214783,
					1
				],
				"metallicFactor":0,
				"roughnessFactor":0.5
			}
		},
		{
			"alphaMode":"BLEND",
			"doubleSided":true,
			"name":"\u041c\u0430\u0442\u0435\u0440\u0438\u0430\u043b.018",
			"pbrMetallicRoughness":{
				"baseColorFactor":[
					0.02604600042104721,
					0.07458899915218353,
					0.8001109957695007,
					0.5
				],
				"metallicFactor":0,
				"roughnessFactor":0.5
			}
		},
		{
			"alphaMode":"BLEND",
			"doubleSided":true,
			"name":"\u041c\u0430\u0442\u0435\u0440\u0438\u0430\u043b.019",
			"pbrMetallicRoughness":{
				"baseColorFactor":[
					0.8014529943466187,
					0,
					0.35395100712776184,
					0.5
				],
				"metallicFactor":0,
				"roughnessFactor":0.5
			}
		},
		{
			"doubleSided":true,
			"name":"Material.009",
			"pbrMetallicRoughness":{
				"baseColorFactor":[
					0.800000011920929,
					0.800000011920929,
					0.800000011920929,
					1
				],
				"metallicFactor":0,
				"roughnessFactor":0.5
			}
		},
		{
			"doubleSided":true,
			"name":"Material.010",
			"pbrMetallicRoughness":{
				"baseColorFactor":[
					0.3548780083656311,
					0.8001019954681396,
					0.0530879981815815,
					1
				],
				"metallicFactor":0,
				"roughnessFactor":0.5
			}
		},
		{
			"alphaMode":"BLEND",
			"doubleSided":true,
			"name":"\u041c\u0430\u0442\u0435\u0440\u0438\u0430\u043b.033",
			"pbrMetallicRoughness":{
				"baseColorFactor":[
					0.8014529943466187,
					0,
					0.35395100712776184,
					0.5
				],
				"metallicFactor":0,
				"roughnessFactor":0.5
			}
		},
		{
			"doubleSided":true,
			"name":"\u041c\u0430\u0442\u0435\u0440\u0438\u0430\u043b.032",
			"pbrMetallicRoughness":{
				"baseColorFactor":[
					0.022305000573396683,
					0.1352829933166504,
					0.801052987575531,
					1
				],
				"metallicFactor":0,
				"roughnessFactor":0.5
			}
		},
		{
			"doubleSided":true,
			"extensions":{
				"KHR_materials_specular":{
					"specularFactor":0
				}
			},
			"name":"mat1.003",
			"pbrMetallicRoughness":{
				"baseColorFactor":[
					0.800000011920929,
					0.800000011920929,
					0.800000011920929,
					1
				],
				"metallicFactor":0,
				"roughnessFactor":0.9292893409729004
			}
		},
		{
			"doubleSided":true,
			"extensions":{
				"KHR_materials_specular":{
					"specularFactor":0
				}
			},
			"name":"mat1.004",
			"pbrMetallicRoughness":{
				"baseColorFactor":[
					0.800000011920929,
					0.800000011920929,
					0.800000011920929,
					1
				],
				"metallicFactor":0,
				"roughnessFactor":0.9292893409729004
			}
		},
		{
			"alphaMode":"BLEND",
			"doubleSided":true,
			"name":"\u041c\u0430\u0442\u0435\u0440\u0438\u0430\u043b.020",
			"pbrMetallicRoughness":{
				"baseColorFactor":[
					0.800000011920929,
					0.800000011920929,
					0.800000011920929,
					0.5
				],
				"metallicFactor":0,
				"roughnessFactor":0.5
			}
		},
		{
			"alphaMode":"BLEND",
			"doubleSided":true,
			"name":"\u041c\u0430\u0442\u0435\u0440\u0438\u0430\u043b.021",
			"pbrMetallicRoughness":{
				"baseColorFactor":[
					0.8006380200386047,
					0.012558000162243843,
					0,
					0.5
				],
				"metallicFactor":0,
				"roughnessFactor":0.5
			}
		},
		{
			"alphaMode":"BLEND",
			"doubleSided":true,
			"name":"\u041c\u0430\u0442\u0435\u0440\u0438\u0430\u043b.022",
			"pbrMetallicRoughness":{
				"baseColorFactor":[
					0.037689998745918274,
					0.8002359867095947,
					0.11050300300121307,
					0.5
				],
				"metallicFactor":0,
				"roughnessFactor":0.5
			}
		},
		{
			"doubleSided":true,
			"name":"\u041c\u0430\u0442\u0435\u0440\u0438\u0430\u043b.023",
			"pbrMetallicRoughness":{
				"baseColorFactor":[
					0.800000011920929,
					0.800000011920929,
					0.800000011920929,
					1
				],
				"metallicFactor":0,
				"roughnessFactor":0.5
			}
		},
		{
			"alphaMode":"BLEND",
			"doubleSided":true,
			"name":"\u041c\u0430\u0442\u0435\u0440\u0438\u0430\u043b.024",
			"pbrMetallicRoughness":{
				"baseColorFactor":[
					0.800000011920929,
					0.800000011920929,
					0.800000011920929,
					0.5
				],
				"metallicFactor":0,
				"roughnessFactor":0.5
			}
		},
		{
			"alphaMode":"BLEND",
			"doubleSided":true,
			"name":"\u041c\u0430\u0442\u0435\u0440\u0438\u0430\u043b.025",
			"pbrMetallicRoughness":{
				"baseColorFactor":[
					0.8006380200386047,
					0.012558000162243843,
					0,
					0.5
				],
				"metallicFactor":0,
				"roughnessFactor":0.5
			}
		},
		{
			"alphaMode":"BLEND",
			"doubleSided":true,
			"name":"\u041c\u0430\u0442\u0435\u0440\u0438\u0430\u043b.026",
			"pbrMetallicRoughness":{
				"baseColorFactor":[
					0.037689998745918274,
					0.8002359867095947,
					0.11050300300121307,
					0.5
				],
				"metallicFactor":0,
				"roughnessFactor":0.5
			}
		},
		{
			"doubleSided":true,
			"name":"\u041c\u0430\u0442\u0435\u0440\u0438\u0430\u043b.027",
			"pbrMetallicRoughness":{
				"baseColorFactor":[
					0.800000011920929,
					0.800000011920929,
					0.800000011920929,
					1
				],
				"metallicFactor":0,
				"roughnessFactor":0.5
			}
		},
		{
			"doubleSided":true,
			"name":"\u041c\u0430\u0442\u0435\u0440\u0438\u0430\u043b.028",
			"pbrMetallicRoughness":{
				"baseColorFactor":[
					0.8007140159606934,
					0.40530499815940857,
					0.2407190054655075,
					1
				],
				"metallicFactor":0,
				"roughnessFactor":0.5
			}
		},
		{
			"doubleSided":true,
			"name":"\u041c\u0430\u0442\u0435\u0440\u0438\u0430\u043b.029",
			"pbrMetallicRoughness":{
				"baseColorFactor":[
					0.8014529943466187,
					0,
					0.35395100712776184,
					1
				],
				"metallicFactor":0,
				"roughnessFactor":0.5
			}
		}
	],
	"meshes":[
		{
			"name":"Cube.005",
			"primitives":[
				{
					"attributes":{
						"POSITION":0,
						"NORMAL":1,
						"TEXCOORD_0":2,
						"TANGENT":3
					},
					"indices":4,
					"material":0
				}
			]
		},
		{
			"name":"Cube.006",
			"primitives":[
				{
					"attributes":{
						"POSITION":5,
						"NORMAL":6,
						"TEXCOORD_0":7,
						"TANGENT":8
					},
					"indices":9,
					"material":1
				}
			]
		},
		{
			"name":"Cube.007",
			"primitives":[
				{
					"attributes":{
						"POSITION":10,
						"NORMAL":11,
						"TEXCOORD_0":12,
						"TANGENT":13
					},
					"indices":14,
					"material":2
				}
			]
		},
		{
			"name":"Cube.008",
			"primitives":[
				{
					"attributes":{
						"POSITION":15,
						"NORMAL":16,
						"TEXCOORD_0":17,
						"TANGENT":18
					},
					"indices":19,
					"material":3
				}
			]
		},
		{
			"name":"Cube.009",
			"primitives":[
				{
					"attributes":{
						"POSITION":20,
						"NORMAL":21,
						"TEXCOORD_0":22,
						"TANGENT":23
					},
					"indices":9,
					"material":4
				}
			]
		},
		{
			"name":"Cube.010",
			"primitives":[
				{
					"attributes":{
						"POSITION":24,
						"NORMAL":25,
						"TEXCOORD_0":26,
						"TANGENT":27
					},
					"indices":28,
					"material":4
				}
			]
		},
		{
			"name":"Cube.011",
			"primitives":[
				{
					"attributes":{
						"POSITION":29,
						"NORMAL":30,
						"TEXCOORD_0":31,
						"TANGENT":32
					},
					"indices":28,
					"material":4
				}
			]
		},
		{
			"name":"Cube.012",
			"primitives":[
				{
					"attributes":{
						"POSITION":33,
						"NORMAL":34,
						"TEXCOORD_0":35,
						"TANGENT":36
					},
					"indices":28,
					"material":4
				}
			]
		},
		{
			"name":"Cube.013",
			"primitives":[
				{
					"attributes":{
						"POSITION":37,
						"NORMAL":38,
						"TEXCOORD_0":39,
						"TANGENT":40
					},
					"indices":28,
					"material":4
				}
			]
		},
		{
			"name":"Cube.014",
			"primitives":[
				{
					"attributes":{
						"POSITION":41,
						"NORMAL":42,
						"TEXCOORD_0":43,
						"TANGENT":44
					},
					"indices":28,
					"material":4
				}
			]
		},
		{
			"name":"Cube.015",
			"primitives":[
				{
					"attributes":{
						"POSITION":45,
						"NORMAL":46,
						"TEXCOORD_0":47,
						"TANGENT":48
					},
					"indices":28,
					"material":4
				}
			]
		},
		{
			"name":"Cube.016",
			"primitives":[
				{
					"attributes":{
						"POSITION":49,
						"NORMAL":50,
						"TEXCOORD_0":51,
						"TANGENT":52
					},
					"indices":4,
					"material":5
				}
			]
		},
		{
			"name":"Cube.017",
			"primitives":[
				{
					"attributes":{
						"POSITION":53,
						"NORMAL":54,
						"TEXCOORD_0":55,
						"TANGENT":56
					},
					"indices":9,
					"material":6
				}
			]
		},
		{
			"name":"Cube.018",
			"primitives":[
				{
					"attributes":{
						"POSITION":57,
						"NORMAL":58,
						"TEXCOORD_0":59,
						"TANGENT":60
					},
					"indices":14,
					"material":7
				}
			]
		},
		{
			"name":"Cube.019",
			"primitives":[
				{
					"attributes":{
						"POSITION":61,
						"NORMAL":62,
						"TEXCOORD_0":63,
						"TANGENT":64
					},
					"indices":19,
					"material":8
				}
			]
		},
		{
			"name":"Cube.020",
			"primitives":[
				{
					"attributes":{
						"POSITION":65,
						"NORMAL":66,
						"TEXCOORD_0":67,
						"TANGENT":68
					},
					"indices":28,
					"material":9
				}
			]
		},
		{
			"name":"Cube.021",
			"primitives":[
				{
					"attributes":{
						"POSITION":69,
						"NORMAL":70,
						"TEXCOORD_0":71,
						"TANGENT":72
					},
					"indices":28,
					"material":9
				}
			]
		},
		{
			"name":"Cube.022",
			"primitives":[
				{
					"attributes":{
						"POSITION":73,
						"NORMAL":74,
						"TEXCOORD_0":75,
						"TANGENT":76
					},
					"indices":28,
					"material":9
				}
			]
		},
		{
			"name":"Cube.023",
			"primitives":[
				{
					"attributes":{
						"POSITION":77,
						"NORMAL":78,
						"TEXCOORD_0":79,
						"TANGENT":80
					},
					"indices":28,
					"material":9
				}
			]
		},
		{
			"name":"Cube.024",
			"primitives":[
				{
					"attributes":{
						"POSITION":81,
						"NORMAL":82,
						"TEXCOORD_0":83,
						"TANGENT":84
					},
					"indices":28,
					"material":9
				}
			]
		},
		{
			"name":"Cube.025",
			"primitives":[
				{
					"attributes":{
						"POSITION":85,
						"NORMAL":86,
						"TEXCOORD_0":87,
						"TANGENT":88
					},
					"indices":28,
					"material":9
				}
			]
		},
		{
			"name":"Cube.026",
			"primitives":[
				{
					"attributes":{
						"POSITION":89,
						"NORMAL":90,
						"TEXCOORD_0":91,
						"TANGENT":92
					},
					"indices":4,
					"material":10
				}
			]
		},
		{
			"name":"Cube.027",
			"primitives":[
				{
					"attributes":{
						"POSITION":93,
						"NORMAL":94,
						"TEXCOORD_0":95,
						"TANGENT":96
					},
					"indices":28,
					"material":11
				}
			]
		},
		{
			"name":"Cube.028",
			"primitives":[
				{
					"attributes":{
						"POSITION":97,
						"NORMAL":98,
						"TEXCOORD_0":99,
						"TANGENT":100
					},
					"indices":28,
					"material":12
				}
			]
		},
		{
			"name":"Cube.029",
			"primitives":[
				{
					"attributes":{
						"POSITION":101,
						"NORMAL":102,
						"TEXCOORD_0":103,
						"TANGENT":104
					},
					"indices":28,
					"material":12
				}
			]
		},
		{
			"name":"Cube.030",
			"primitives":[
				{
					"attributes":{
						"POSITION":105,
						"NORMAL":106,
						"TEXCOORD_0":107,
						"TANGENT":108
					},
					"indices":28,
					"material":12
				}
			]
		},
		{
			"name":"Cube.031",
			"primitives":[
				{
					"attributes":{
						"POSITION":109,
						"NORMAL":110,
						"TEXCOORD_0":111,
						"TANGENT":112
					},
					"indices":28,
					"material":12
				}
			]
		},
		{
			"name":"Cube.032",
			"primitives":[
				{
					"attributes":{
						"POSITION":113,
						"NORMAL":114,
						"TEXCOORD_0":115,
						"TANGENT":116
					},
					"indices":28,
					"material":12
				}
			]
		},
		{
			"name":"Cube.033",
			"primitives":[
				{
					"attributes":{
						"POSITION":117,
						"NORMAL":118,
						"TEXCOORD_0":119,
						"TANGENT":120
					},
					"indices":28,
					"material":12
				}
			]
		},
		{
			"name":"Cube.034",
			"primitives":[
				{
					"attributes":{
						"POSITION":121,
						"NORMAL":122,
						"TEXCOORD_0":123,
						"TANGENT":124
					},
					"indices":28,
					"material":13
				}
			]
		},
		{
			"name":"Cube.035",
			"primitives":[
				{
					"attributes":{
						"POSITION":125,
						"NORMAL":126,
						"TEXCOORD_0":127,
						"TANGENT":128
					},
					"indices":28,
					"material":13
				}
			]
		},
		{
			"name":"Cube.036",
			"primitives":[
				{
					"attributes":{
						"POSITION":129,
						"NORMAL":130,
						"TEXCOORD_0":131,
						"TANGENT":132
					},
					"indices":28,
					"material":13
				}
			]
		},
		{
			"name":"Cube.037",
			"primitives":[
				{
					"attributes":{
						"POSITION":133,
						"NORMAL":134,
						"TEXCOORD_0":135,
						"TANGENT":136
					},
					"indices":28,
					"material":13
				}
			]
		},
		{
			"name":"Cube.038",
			"primitives":[
				{
					"attributes":{
						"POSITION":137,
						"NORMAL":138,
						"TEXCOORD_0":139,
						"TANGENT":140
					},
					"indices":28,
					"material":13
				}
			]
		},
		{
			"name":"Cube.039",
			"primitives":[
				{
					"attributes":{
						"POSITION":141,
						"NORMAL":142,
						"TEXCOORD_0":143,
						"TANGENT":144
					},
					"indices":28,
					"material":13
				}
			]
		},
		{
			"name":"map04",
			"primitives":[
				{
					"attributes":{
						"POSITION":145,
						"NORMAL":146,
						"TEXCOORD_0":147
					},
					"indices":148,
					"material":14
				}
			]
		},
		{
			"name":"map04.001",
			"primitives":[
				{
					"attributes":{
						"POSITION":149,
						"NORMAL":150,
						"TEXCOORD_0":151
					},
					"indices":148,
					"material":15
				}
			]
		},
		{
			"name":"\u041a\u0443\u0431",
			"primitives":[
				{
					"attributes":{
						"POSITION":152,
						"NORMAL":153,
						"TEXCOORD_0":154,
						"TANGENT":155
					},
					"indices":28,
					"material":16
				}
			]
		},
		{
			"name":"\u041a\u0443\u0431.001",
			"primitives":[
				{
					"attributes":{
						"POSITION":156,
						"NORMAL":157,
						"TEXCOORD_0":158,
						"TANGENT":159
					},
					"indices":160,
					"material":17
				}
			]
		},
		{
			"name":"\u041a\u0443\u0431.002",
			"primitives":[
				{
					"attributes":{
						"POSITION":161,
						"NORMAL":162,
						"TEXCOORD_0":163,
						"TANGENT":164
					},
					"indices":160,
					"material":18
				}
			]
		},
		{
			"name":"\u041a\u0443\u0431.003",
			"primitives":[
				{
					"attributes":{
						"POSITION":165,
						"NORMAL":166,
						"TEXCOORD_0":167,
						"TANGENT":168
					},
					"indices":160,
					"material":19
				}
			]
		},
		{
			"name":"\u041a\u0443\u0431.004",
			"primitives":[
				{
					"attributes":{
						"POSITION":169,
						"NORMAL":170,
						"TEXCOORD_0":171,
						"TANGENT":172
					},
					"indices":160,
					"material":3
				}
			]
		},
		{
			"name":"\u041a\u0443\u0431.005",
			"primitives":[
				{
					"attributes":{
						"POSITION":173,
						"NORMAL":174,
						"TEXCOORD_0":175,
						"TANGENT":176
					},
					"indices":28,
					"material":20
				}
			]
		},
		{
			"name":"\u041a\u0443\u0431.006",
			"primitives":[
				{
					"attributes":{
						"POSITION":177,
						"NORMAL":178,
						"TEXCOORD_0":179,
						"TANGENT":180
					},
					"indices":160,
					"material":21
				}
			]
		},
		{
			"name":"\u041a\u0443\u0431.007",
			"primitives":[
				{
					"attributes":{
						"POSITION":181,
						"NORMAL":182,
						"TEXCOORD_0":183,
						"TANGENT":184
					},
					"indices":160,
					"material":22
				}
			]
		},
		{
			"name":"\u041a\u0443\u0431.008",
			"primitives":[
				{
					"attributes":{
						"POSITION":185,
						"NORMAL":186,
						"TEXCOORD_0":187,
						"TANGENT":188
					},
					"indices":160,
					"material":23
				}
			]
		},
		{
			"name":"\u041a\u0443\u0431.009",
			"primitives":[
				{
					"attributes":{
						"POSITION":189,
						"NORMAL":190,
						"TEXCOORD_0":191,
						"TANGENT":192
					},
					"indices":160,
					"material":8
				}
			]
		},
		{
			"name":"\u041a\u0443\u0431.010",
			"primitives":[
				{
					"attributes":{
						"POSITION":193,
						"NORMAL":194,
						"TEXCOORD_0":195,
						"TANGENT":196
					},
					"indices":19,
					"material":24
				}
			]
		},
		{
			"name":"\u041f\u043b\u043e\u0441\u043a\u043e\u0441\u0442\u044c.001",
			"primitives":[
				{
					"attributes":{
						"POSITION":197,
						"NORMAL":198,
						"TEXCOORD_0":199,
						"TANGENT":200
					},
					"indices":201,
					"material":25
				}
			]
		},
		{
			"name":"\u041f\u043b\u043e\u0441\u043a\u043e\u0441\u0442\u044c.002",
			"primitives":[
				{
					"attributes":{
						"POSITION":202,
						"NORMAL":203,
						"TEXCOORD_0":204,
						"TANGENT":205
					},
					"indices":201,
					"material":9
				}
			]
		},
		{
			"name":"\u0421\u0444\u0435\u0440\u0430",
			"primitives":[
				{
					"attributes":{
						"POSITION":206,
						"NORMAL":207,
						"TEXCOORD_0":208,
						"TANGENT":209
					},
					"indices":210,
					"material":1
				}
			]
		}
	],
	"accessors":[
		{
			"bufferView":0,
			"componentType":5126,
			"count":24,
			"max":[
				1,
				28.974178314208984,
				0.9999920129776001
			],
			"min":[
				-1,
				26.974178314208984,
				-1.0000079870224
			],
			"type":"VEC3"
		},
		{
			"bufferView":1,
			"componentType":5126,
			"count":24,
			"type":"VEC3"
		},
		{
			"bufferView":2,
			"componentType":5126,
			"count":24,
			"type":"VEC2"
		},
		{
			"bufferView":3,
			"componentType":5126,
			"count":24,
			"type":"VEC4"
		},
		{
			"bufferView":4,
			"componentType":5123,
			"count":36,
			"type":"SCALAR"
		},
		{
			"bufferView":5,
			"componentType":5126,
			"count":24,
			"max":[
				-10.256391525268555,
				15.321452140808105,
				1.6521199941635132
			],
			"min":[
				-18.476390838623047,
				12.945572853088379,
				-0.7237589955329895
			],
			"type":"VEC3"
		},
		{
			"bufferView":6,
			"componentType":5126,
			"count":24,
			"type":"VEC3"
		},
		{
			"bufferView":7,
			"componentType":5126,
			"count":24,
			"type":"VEC2"
		},
		{
			"bufferView":8,
			"componentType":5126,
			"count":24,
			"type":"VEC4"
		},
		{
			"bufferView":9,
			"componentType":5123,
			"count":36,
			"type":"SCALAR"
		},
		{
			"bufferView":10,
			"componentType":5126,
			"count":24,
			"max":[
				-6.4456329345703125,
				29.592082977294922,
				1.0540390014648438
			],
			"min":[
				-12.056026458740234,
				26.10222625732422,
				-5.301054000854492
			],
			"type":"VEC3"
		},
		{
			"bufferView":11,
			"componentType":5126,
			"count":24,
			"type":"VEC3"
		},
		{
			"bufferView":12,
			"componentType":5126,
			"count":24,
			"type":"VEC2"
		},
		{
			"bufferView":13,
			"componentType":5126,
			"count":24,
			"type":"VEC4"
		},
		{
			"bufferView":14,
			"componentType":5123,
			"count":36,
			"type":"SCALAR"
		},
		{
			"bufferView":15,
			"componentType":5126,
			"count":24,
			"max":[
				-5.943851947784424,
				29.39134979248047,
				0.8764920234680176
			],
			"min":[
				-11.25233268737793,
				26.307918548583984,
				-5.123508930206299
			],
			"type":"VEC3"
		},
		{
			"bufferView":16,
			"componentType":5126,
			"count":24,
			"type":"VEC3"
		},
		{
			"bufferView":17,
			"componentType":5126,
			"count":24,
			"type":"VEC2"
		},
		{
			"bufferView":18,
			"componentType":5126,
			"count":24,
			"type":"VEC4"
		},
		{
			"bufferView":19,
			"componentType":5123,
			"count":36,
			"type":"SCALAR"
		},
		{
			"bufferView":20,
			"componentType":5126,
			"count":24,
			"max":[
				27.55506134033203,
				-28.392738342285156,
				7.26061487197876
			],
			"min":[
				-55.96012878417969,
				-40.272132873535156,
				-4.618781089782715
			],
			"type":"VEC3"
		},
		{
			"bufferView":21,
			"componentType":5126,
			"count":24,
			"type":"VEC3"
		},
		{
			"bufferView":22,
			"componentType":5126,
			"count":24,
			"type":"VEC2"
		},
		{
			"bufferView":23,
			"componentType":5126,
			"count":24,
			"type":"VEC4"
		},
		{
			"bufferView":24,
			"componentType":5126,
			"count":24,
			"max":[
				25.25,
				10.095398902893066,
				0.42138800024986267
			],
			"min":[
				24.75,
				-10.095398902893066,
				0.12434499710798264
			],
			"type":"VEC3"
		},
		{
			"bufferView":25,
			"componentType":5126,
			"count":24,
			"type":"VEC3"
		},
		{
			"bufferView":26,
			"componentType":5126,
			"count":24,
			"type":"VEC2"
		},
		{
			"bufferView":27,
			"componentType":5126,
			"count":24,
			"type":"VEC4"
		},
		{
			"bufferView":28,
			"componentType":5123,
			"count":36,
			"type":"SCALAR"
		},
		{
			"bufferView":29,
			"componentType":5126,
			"count":24,
			"max":[
				25.722084045410156,
				10.095398902893066,
				0.12947200238704681
			],
			"min":[
				25.222084045410156,
				-10.095398902893066,
				-0.1675720065832138
			],
			"type":"VEC3"
		},
		{
			"bufferView":30,
			"componentType":5126,
			"count":24,
			"type":"VEC3"
		},
		{
			"bufferView":31,
			"componentType":5126,
			"count":24,
			"type":"VEC2"
		},
		{
			"bufferView":32,
			"componentType":5126,
			"count":24,
			"type":"VEC4"
		},
		{
			"bufferView":33,
			"componentType":5126,
			"count":24,
			"max":[
				26.203414916992188,
				10.095398902893066,
				-0.16052399575710297
			],
			"min":[
				25.703414916992188,
				-10.095398902893066,
				-0.4575679898262024
			],
			"type":"VEC3"
		},
		{
			"bufferView":34,
			"componentType":5126,
			"count":24,
			"type":"VEC3"
		},
		{
			"bufferView":35,
			"componentType":5126,
			"count":24,
			"type":"VEC2"
		},
		{
			"bufferView":36,
			"componentType":5126,
			"count":24,
			"type":"VEC4"
		},
		{
			"bufferView":37,
			"componentType":5126,
			"count":24,
			"max":[
				27.64803695678711,
				10.095398902893066,
				-1.024749994277954
			],
			"min":[
				27.14803695678711,
				-10.095398902893066,
				-1.321794033050537
			],
			"type":"VEC3"
		},
		{
			"bufferView":38,
			"componentType":5126,
			"count":24,
			"type":"VEC3"
		},
		{
			"bufferView":39,
			"componentType":5126,
			"count":24,
			"type":"VEC2"
		},
		{
			"bufferView":40,
			"componentType":5126,
			"count":24,
			"type":"VEC4"
		},
		{
			"bufferView":41,
			"componentType":5126,
			"count":24,
			"max":[
				27.166706085205078,
				10.095398902893066,
				-0.7347540259361267
			],
			"min":[
				26.666706085205078,
				-10.095398902893066,
				-1.031798005104065
			],
			"type":"VEC3"
		},
		{
			"bufferView":42,
			"componentType":5126,
			"count":24,
			"type":"VEC3"
		},
		{
			"bufferView":43,
			"componentType":5126,
			"count":24,
			"type":"VEC2"
		},
		{
			"bufferView":44,
			"componentType":5126,
			"count":24,
			"type":"VEC4"
		},
		{
			"bufferView":45,
			"componentType":5126,
			"count":24,
			"max":[
				26.694622039794922,
				10.095398902893066,
				-0.44283801317214966
			],
			"min":[
				26.194622039794922,
				-10.095398902893066,
				-0.7398809790611267
			],
			"type":"VEC3"
		},
		{
			"bufferView":46,
			"componentType":5126,
			"count":24,
			"type":"VEC3"
		},
		{
			"bufferView":47,
			"componentType":5126,
			"count":24,
			"type":"VEC2"
		},
		{
			"bufferView":48,
			"componentType":5126,
			"count":24,
			"type":"VEC4"
		},
		{
			"bufferView":49,
			"componentType":5126,
			"count":24,
			"max":[
				1,
				28.974178314208984,
				0.9999920129776001
			],
			"min":[
				-1,
				26.974178314208984,
				-1.0000079870224
			],
			"type":"VEC3"
		},
		{
			"bufferView":50,
			"componentType":5126,
			"count":24,
			"type":"VEC3"
		},
		{
			"bufferView":51,
			"componentType":5126,
			"count":24,
			"type":"VEC2"
		},
		{
			"bufferView":52,
			"componentType":5126,
			"count":24,
			"type":"VEC4"
		},
		{
			"bufferView":53,
			"componentType":5126,
			"count":24,
			"max":[
				-10.256391525268555,
				15.321452140808105,
				1.6521199941635132
			],
			"min":[
				-18.476390838623047,
				12.945572853088379,
				-0.7237589955329895
			],
			"type":"VEC3"
		},
		{
			"bufferView":54,
			"componentType":5126,
			"count":24,
			"type":"VEC3"
		},
		{
			"bufferView":55,
			"componentType":5126,
			"count":24,
			"type":"VEC2"
		},
		{
			"bufferView":56,
			"componentType":5126,
			"count":24,
			"type":"VEC4"
		},
		{
			"bufferView":57,
			"componentType":5126,
			"count":24,
			"max":[
				-6.4456329345703125,
				29.592082977294922,
				1.0540390014648438
			],
			"min":[
				-12.056026458740234,
				26.10222625732422,
				-5.301054000854492
			],
			"type":"VEC3"
		},
		{
			"bufferView":58,
			"componentType":5126,
			"count":24,
			"type":"VEC3"
		},
		{
			"bufferView":59,
			"componentType":5126,
			"count":24,
			"type":"VEC2"
		},
		{
			"bufferView":60,
			"componentType":5126,
			"count":24,
			"type":"VEC4"
		},
		{
			"bufferView":61,
			"componentType":5126,
			"count":24,
			"max":[
				-5.943851947784424,
				29.39134979248047,
				0.8764920234680176
			],
			"min":[
				-11.25233268737793,
				26.307918548583984,
				-5.123508930206299
			],
			"type":"VEC3"
		},
		{
			"bufferView":62,
			"componentType":5126,
			"count":24,
			"type":"VEC3"
		},
		{
			"bufferView":63,
			"componentType":5126,
			"count":24,
			"type":"VEC2"
		},
		{
			"bufferView":64,
			"componentType":5126,
			"count":24,
			"type":"VEC4"
		},
		{
			"bufferView":65,
			"componentType":5126,
			"count":24,
			"max":[
				29.5671443939209,
				10.095398902893066,
				-2.1595349311828613
			],
			"min":[
				29.0671443939209,
				-10.095398902893066,
				-2.4565789699554443
			],
			"type":"VEC3"
		},
		{
			"bufferView":66,
			"componentType":5126,
			"count":24,
			"type":"VEC3"
		},
		{
			"bufferView":67,
			"componentType":5126,
			"count":24,
			"type":"VEC2"
		},
		{
			"bufferView":68,
			"componentType":5126,
			"count":24,
			"type":"VEC4"
		},
		{
			"bufferView":69,
			"componentType":5126,
			"count":24,
			"max":[
				30.039228439331055,
				10.095398902893066,
				-2.4514520168304443
			],
			"min":[
				29.539228439331055,
				-10.095398902893066,
				-2.7484960556030273
			],
			"type":"VEC3"
		},
		{
			"bufferView":70,
			"componentType":5126,
			"count":24,
			"type":"VEC3"
		},
		{
			"bufferView":71,
			"componentType":5126,
			"count":24,
			"type":"VEC2"
		},
		{
			"bufferView":72,
			"componentType":5126,
			"count":24,
			"type":"VEC4"
		},
		{
			"bufferView":73,
			"componentType":5126,
			"count":24,
			"max":[
				30.520559310913086,
				10.095398902893066,
				-2.741447925567627
			],
			"min":[
				30.020559310913086,
				-10.095398902893066,
				-3.03849196434021
			],
			"type":"VEC3"
		},
		{
			"bufferView":74,
			"componentType":5126,
			"count":24,
			"type":"VEC3"
		},
		{
			"bufferView":75,
			"componentType":5126,
			"count":24,
			"type":"VEC2"
		},
		{
			"bufferView":76,
			"componentType":5126,
			"count":24,
			"type":"VEC4"
		},
		{
			"bufferView":77,
			"componentType":5126,
			"count":24,
			"max":[
				29.075937271118164,
				10.095398902893066,
				-1.877221941947937
			],
			"min":[
				28.575937271118164,
				-10.095398902893066,
				-2.1742660999298096
			],
			"type":"VEC3"
		},
		{
			"bufferView":78,
			"componentType":5126,
			"count":24,
			"type":"VEC3"
		},
		{
			"bufferView":79,
			"componentType":5126,
			"count":24,
			"type":"VEC2"
		},
		{
			"bufferView":80,
			"componentType":5126,
			"count":24,
			"type":"VEC4"
		},
		{
			"bufferView":81,
			"componentType":5126,
			"count":24,
			"max":[
				28.594606399536133,
				10.095398902893066,
				-1.5872260332107544
			],
			"min":[
				28.094606399536133,
				-10.095398902893066,
				-1.8842689990997314
			],
			"type":"VEC3"
		},
		{
			"bufferView":82,
			"componentType":5126,
			"count":24,
			"type":"VEC3"
		},
		{
			"bufferView":83,
			"componentType":5126,
			"count":24,
			"type":"VEC2"
		},
		{
			"bufferView":84,
			"componentType":5126,
			"count":24,
			"type":"VEC4"
		},
		{
			"bufferView":85,
			"componentType":5126,
			"count":24,
			"max":[
				28.122522354125977,
				10.095398902893066,
				-1.2953089475631714
			],
			"min":[
				27.622522354125977,
				-10.095398902893066,
				-1.592352032661438
			],
			"type":"VEC3"
		},
		{
			"bufferView":86,
			"componentType":5126,
			"count":24,
			"type":"VEC3"
		},
		{
			"bufferView":87,
			"componentType":5126,
			"count":24,
			"type":"VEC2"
		},
		{
			"bufferView":88,
			"componentType":5126,
			"count":24,
			"type":"VEC4"
		},
		{
			"bufferView":89,
			"componentType":5126,
			"count":24,
			"max":[
				-6,
				-28.025821685791016,
				-2
			],
			"min":[
				-8,
				-30.025821685791016,
				-4
			],
			"type":"VEC3"
		},
		{
			"bufferView":90,
			"componentType":5126,
			"count":24,
			"type":"VEC3"
		},
		{
			"bufferView":91,
			"componentType":5126,
			"count":24,
			"type":"VEC2"
		},
		{
			"bufferView":92,
			"componentType":5126,
			"count":24,
			"type":"VEC4"
		},
		{
			"bufferView":93,
			"componentType":5126,
			"count":24,
			"max":[
				-7.95111608505249,
				1,
				0.29418298602104187
			],
			"min":[
				-9.951115608215332,
				-1,
				-1.7058169841766357
			],
			"type":"VEC3"
		},
		{
			"bufferView":94,
			"componentType":5126,
			"count":24,
			"type":"VEC3"
		},
		{
			"bufferView":95,
			"componentType":5126,
			"count":24,
			"type":"VEC2"
		},
		{
			"bufferView":96,
			"componentType":5126,
			"count":24,
			"type":"VEC4"
		},
		{
			"bufferView":97,
			"componentType":5126,
			"count":24,
			"max":[
				33.83536911010742,
				10.095398902893066,
				-4.705572128295898
			],
			"min":[
				33.33536911010742,
				-10.095398902893066,
				-5.002614974975586
			],
			"type":"VEC3"
		},
		{
			"bufferView":98,
			"componentType":5126,
			"count":24,
			"type":"VEC3"
		},
		{
			"bufferView":99,
			"componentType":5126,
			"count":24,
			"type":"VEC2"
		},
		{
			"bufferView":100,
			"componentType":5126,
			"count":24,
			"type":"VEC4"
		},
		{
			"bufferView":101,
			"componentType":5126,
			"count":24,
			"max":[
				34.30745315551758,
				10.095398902893066,
				-4.997488975524902
			],
			"min":[
				33.80745315551758,
				-10.095398902893066,
				-5.29453182220459
			],
			"type":"VEC3"
		},
		{
			"bufferView":102,
			"componentType":5126,
			"count":24,
			"type":"VEC3"
		},
		{
			"bufferView":103,
			"componentType":5126,
			"count":24,
			"type":"VEC2"
		},
		{
			"bufferView":104,
			"componentType":5126,
			"count":24,
			"type":"VEC4"
		},
		{
			"bufferView":105,
			"componentType":5126,
			"count":24,
			"max":[
				34.78878402709961,
				10.095398902893066,
				-5.287485122680664
			],
			"min":[
				34.28878402709961,
				-10.095398902893066,
				-5.584528923034668
			],
			"type":"VEC3"
		},
		{
			"bufferView":106,
			"componentType":5126,
			"count":24,
			"type":"VEC3"
		},
		{
			"bufferView":107,
			"componentType":5126,
			"count":24,
			"type":"VEC2"
		},
		{
			"bufferView":108,
			"componentType":5126,
			"count":24,
			"type":"VEC4"
		},
		{
			"bufferView":109,
			"componentType":5126,
			"count":24,
			"max":[
				36.23340606689453,
				10.095398902893066,
				-6.1517109870910645
			],
			"min":[
				35.73340606689453,
				-10.095399856567383,
				-6.448753833770752
			],
			"type":"VEC3"
		},
		{
			"bufferView":110,
			"componentType":5126,
			"count":24,
			"type":"VEC3"
		},
		{
			"bufferView":111,
			"componentType":5126,
			"count":24,
			"type":"VEC2"
		},
		{
			"bufferView":112,
			"componentType":5126,
			"count":24,
			"type":"VEC4"
		},
		{
			"bufferView":113,
			"componentType":5126,
			"count":24,
			"max":[
				35.7520751953125,
				10.095398902893066,
				-5.861714839935303
			],
			"min":[
				35.2520751953125,
				-10.095398902893066,
				-6.158759117126465
			],
			"type":"VEC3"
		},
		{
			"bufferView":114,
			"componentType":5126,
			"count":24,
			"type":"VEC3"
		},
		{
			"bufferView":115,
			"componentType":5126,
			"count":24,
			"type":"VEC2"
		},
		{
			"bufferView":116,
			"componentType":5126,
			"count":24,
			"type":"VEC4"
		},
		{
			"bufferView":117,
			"componentType":5126,
			"count":24,
			"max":[
				35.279991149902344,
				10.095398902893066,
				-5.569797992706299
			],
			"min":[
				34.779991149902344,
				-10.095398902893066,
				-5.866840839385986
			],
			"type":"VEC3"
		},
		{
			"bufferView":118,
			"componentType":5126,
			"count":24,
			"type":"VEC3"
		},
		{
			"bufferView":119,
			"componentType":5126,
			"count":24,
			"type":"VEC2"
		},
		{
			"bufferView":120,
			"componentType":5126,
			"count":24,
			"type":"VEC4"
		},
		{
			"bufferView":121,
			"componentType":5126,
			"count":24,
			"max":[
				32.407470703125,
				10.095398902893066,
				-3.853100061416626
			],
			"min":[
				31.907468795776367,
				-10.095398902893066,
				-4.150144100189209
			],
			"type":"VEC3"
		},
		{
			"bufferView":122,
			"componentType":5126,
			"count":24,
			"type":"VEC3"
		},
		{
			"bufferView":123,
			"componentType":5126,
			"count":24,
			"type":"VEC2"
		},
		{
			"bufferView":124,
			"componentType":5126,
			"count":24,
			"type":"VEC4"
		},
		{
			"bufferView":125,
			"componentType":5126,
			"count":24,
			"max":[
				32.879554748535156,
				10.095398902893066,
				-4.145017147064209
			],
			"min":[
				32.379554748535156,
				-10.095398902893066,
				-4.442060947418213
			],
			"type":"VEC3"
		},
		{
			"bufferView":126,
			"componentType":5126,
			"count":24,
			"type":"VEC3"
		},
		{
			"bufferView":127,
			"componentType":5126,
			"count":24,
			"type":"VEC2"
		},
		{
			"bufferView":128,
			"componentType":5126,
			"count":24,
			"type":"VEC4"
		},
		{
			"bufferView":129,
			"componentType":5126,
			"count":24,
			"max":[
				33.36088562011719,
				10.095398902893066,
				-4.4350128173828125
			],
			"min":[
				32.86088562011719,
				-10.095398902893066,
				-4.732057094573975
			],
			"type":"VEC3"
		},
		{
			"bufferView":130,
			"componentType":5126,
			"count":24,
			"type":"VEC3"
		},
		{
			"bufferView":131,
			"componentType":5126,
			"count":24,
			"type":"VEC2"
		},
		{
			"bufferView":132,
			"componentType":5126,
			"count":24,
			"type":"VEC4"
		},
		{
			"bufferView":133,
			"componentType":5126,
			"count":24,
			"max":[
				31.916261672973633,
				10.095398902893066,
				-3.570786952972412
			],
			"min":[
				31.416261672973633,
				-10.095398902893066,
				-3.867830991744995
			],
			"type":"VEC3"
		},
		{
			"bufferView":134,
			"componentType":5126,
			"count":24,
			"type":"VEC3"
		},
		{
			"bufferView":135,
			"componentType":5126,
			"count":24,
			"type":"VEC2"
		},
		{
			"bufferView":136,
			"componentType":5126,
			"count":24,
			"type":"VEC4"
		},
		{
			"bufferView":137,
			"componentType":5126,
			"count":24,
			"max":[
				31.4349308013916,
				10.095398902893066,
				-3.2807910442352295
			],
			"min":[
				30.9349308013916,
				-10.095398902893066,
				-3.5778350830078125
			],
			"type":"VEC3"
		},
		{
			"bufferView":138,
			"componentType":5126,
			"count":24,
			"type":"VEC3"
		},
		{
			"bufferView":139,
			"componentType":5126,
			"count":24,
			"type":"VEC2"
		},
		{
			"bufferView":140,
			"componentType":5126,
			"count":24,
			"type":"VEC4"
		},
		{
			"bufferView":141,
			"componentType":5126,
			"count":24,
			"max":[
				30.962846755981445,
				10.095398902893066,
				-2.988874912261963
			],
			"min":[
				30.462846755981445,
				-10.095398902893066,
				-3.2859179973602295
			],
			"type":"VEC3"
		},
		{
			"bufferView":142,
			"componentType":5126,
			"count":24,
			"type":"VEC3"
		},
		{
			"bufferView":143,
			"componentType":5126,
			"count":24,
			"type":"VEC2"
		},
		{
			"bufferView":144,
			"componentType":5126,
			"count":24,
			"type":"VEC4"
		},
		{
			"bufferView":145,
			"componentType":5126,
			"count":310,
			"max":[
				31.25,
				31.25,
				22.95729637145996
			],
			"min":[
				-31.25,
				-31.25,
				-23.290014266967773
			],
			"type":"VEC3"
		},
		{
			"bufferView":146,
			"componentType":5126,
			"count":310,
			"type":"VEC3"
		},
		{
			"bufferView":147,
			"componentType":5126,
			"count":310,
			"type":"VEC2"
		},
		{
			"bufferView":148,
			"componentType":5123,
			"count":474,
			"type":"SCALAR"
		},
		{
			"bufferView":149,
			"componentType":5126,
			"count":310,
			"max":[
				31.25,
				31.25,
				22.95729637145996
			],
			"min":[
				-31.25,
				-31.25,
				-23.290014266967773
			],
			"type":"VEC3"
		},
		{
			"bufferView":150,
			"componentType":5126,
			"count":310,
			"type":"VEC3"
		},
		{
			"bufferView":151,
			"componentType":5126,
			"count":310,
			"type":"VEC2"
		},
		{
			"bufferView":152,
			"componentType":5126,
			"count":24,
			"max":[
				-56.74058532714844,
				-20.165193557739258,
				0.43998798727989197
			],
			"min":[
				-58.74058532714844,
				-25.47184181213379,
				-15.505264282226562
			],
			"type":"VEC3"
		},
		{
			"bufferView":153,
			"componentType":5126,
			"count":24,
			"type":"VEC3"
		},
		{
			"bufferView":154,
			"componentType":5126,
			"count":24,
			"type":"VEC2"
		},
		{
			"bufferView":155,
			"componentType":5126,
			"count":24,
			"type":"VEC4"
		},
		{
			"bufferView":156,
			"componentType":5126,
			"count":24,
			"max":[
				-37.33012771606445,
				16.106616973876953,
				0.4399760067462921
			],
			"min":[
				-42.48488998413086,
				10.928352355957031,
				-15.50527572631836
			],
			"type":"VEC3"
		},
		{
			"bufferView":157,
			"componentType":5126,
			"count":24,
			"type":"VEC3"
		},
		{
			"bufferView":158,
			"componentType":5126,
			"count":24,
			"type":"VEC2"
		},
		{
			"bufferView":159,
			"componentType":5126,
			"count":24,
			"type":"VEC4"
		},
		{
			"bufferView":160,
			"componentType":5123,
			"count":36,
			"type":"SCALAR"
		},
		{
			"bufferView":161,
			"componentType":5126,
			"count":24,
			"max":[
				-40.7846794128418,
				19.469303131103516,
				0.43997499346733093
			],
			"min":[
				-45.9394416809082,
				14.29103946685791,
				-15.505279541015625
			],
			"type":"VEC3"
		},
		{
			"bufferView":162,
			"componentType":5126,
			"count":24,
			"type":"VEC3"
		},
		{
			"bufferView":163,
			"componentType":5126,
			"count":24,
			"type":"VEC2"
		},
		{
			"bufferView":164,
			"componentType":5126,
			"count":24,
			"type":"VEC4"
		},
		{
			"bufferView":165,
			"componentType":5126,
			"count":24,
			"max":[
				-47.935054779052734,
				26.215423583984375,
				0.43997201323509216
			],
			"min":[
				-53.08981704711914,
				21.037155151367188,
				-15.505279541015625
			],
			"type":"VEC3"
		},
		{
			"bufferView":166,
			"componentType":5126,
			"count":24,
			"type":"VEC3"
		},
		{
			"bufferView":167,
			"componentType":5126,
			"count":24,
			"type":"VEC2"
		},
		{
			"bufferView":168,
			"componentType":5126,
			"count":24,
			"type":"VEC4"
		},
		{
			"bufferView":169,
			"componentType":5126,
			"count":24,
			"max":[
				-31.23948860168457,
				7.30763578414917,
				0.4399789869785309
			],
			"min":[
				-36.394248962402344,
				2.129370927810669,
				-15.50527572631836
			],
			"type":"VEC3"
		},
		{
			"bufferView":170,
			"componentType":5126,
			"count":24,
			"type":"VEC3"
		},
		{
			"bufferView":171,
			"componentType":5126,
			"count":24,
			"type":"VEC2"
		},
		{
			"bufferView":172,
			"componentType":5126,
			"count":24,
			"type":"VEC4"
		},
		{
			"bufferView":173,
			"componentType":5126,
			"count":24,
			"max":[
				-56.74058532714844,
				-20.165193557739258,
				0.43998798727989197
			],
			"min":[
				-58.74058532714844,
				-25.47184181213379,
				-15.505264282226562
			],
			"type":"VEC3"
		},
		{
			"bufferView":174,
			"componentType":5126,
			"count":24,
			"type":"VEC3"
		},
		{
			"bufferView":175,
			"componentType":5126,
			"count":24,
			"type":"VEC2"
		},
		{
			"bufferView":176,
			"componentType":5126,
			"count":24,
			"type":"VEC4"
		},
		{
			"bufferView":177,
			"componentType":5126,
			"count":24,
			"max":[
				-37.33012771606445,
				16.106616973876953,
				0.4399760067462921
			],
			"min":[
				-42.48488998413086,
				10.928352355957031,
				-15.50527572631836
			],
			"type":"VEC3"
		},
		{
			"bufferView":178,
			"componentType":5126,
			"count":24,
			"type":"VEC3"
		},
		{
			"bufferView":179,
			"componentType":5126,
			"count":24,
			"type":"VEC2"
		},
		{
			"bufferView":180,
			"componentType":5126,
			"count":24,
			"type":"VEC4"
		},
		{
			"bufferView":181,
			"componentType":5126,
			"count":24,
			"max":[
				-40.7846794128418,
				19.469303131103516,
				0.43997499346733093
			],
			"min":[
				-45.9394416809082,
				14.29103946685791,
				-15.505279541015625
			],
			"type":"VEC3"
		},
		{
			"bufferView":182,
			"componentType":5126,
			"count":24,
			"type":"VEC3"
		},
		{
			"bufferView":183,
			"componentType":5126,
			"count":24,
			"type":"VEC2"
		},
		{
			"bufferView":184,
			"componentType":5126,
			"count":24,
			"type":"VEC4"
		},
		{
			"bufferView":185,
			"componentType":5126,
			"count":24,
			"max":[
				-47.935054779052734,
				26.215423583984375,
				0.43997201323509216
			],
			"min":[
				-53.08981704711914,
				21.037155151367188,
				-15.505279541015625
			],
			"type":"VEC3"
		},
		{
			"bufferView":186,
			"componentType":5126,
			"count":24,
			"type":"VEC3"
		},
		{
			"bufferView":187,
			"componentType":5126,
			"count":24,
			"type":"VEC2"
		},
		{
			"bufferView":188,
			"componentType":5126,
			"count":24,
			"type":"VEC4"
		},
		{
			"bufferView":189,
			"componentType":5126,
			"count":24,
			"max":[
				-31.23948860168457,
				7.30763578414917,
				0.4399789869785309
			],
			"min":[
				-36.394248962402344,
				2.129370927810669,
				-15.50527572631836
			],
			"type":"VEC3"
		},
		{
			"bufferView":190,
			"componentType":5126,
			"count":24,
			"type":"VEC3"
		},
		{
			"bufferView":191,
			"componentType":5126,
			"count":24,
			"type":"VEC2"
		},
		{
			"bufferView":192,
			"componentType":5126,
			"count":24,
			"type":"VEC4"
		},
		{
			"bufferView":193,
			"componentType":5126,
			"count":24,
			"max":[
				-30.830360412597656,
				3.8410420417785645,
				0.4399789869785309
			],
			"min":[
				-36.47911834716797,
				0.48982399702072144,
				-15.505273818969727
			],
			"type":"VEC3"
		},
		{
			"bufferView":194,
			"componentType":5126,
			"count":24,
			"type":"VEC3"
		},
		{
			"bufferView":195,
			"componentType":5126,
			"count":24,
			"type":"VEC2"
		},
		{
			"bufferView":196,
			"componentType":5126,
			"count":24,
			"type":"VEC4"
		},
		{
			"bufferView":197,
			"componentType":5126,
			"count":4,
			"max":[
				-29.022762298583984,
				31.046077728271484,
				0.3352850079536438
			],
			"min":[
				-68.28506469726562,
				-31.046077728271484,
				-4.551187038421631
			],
			"type":"VEC3"
		},
		{
			"bufferView":198,
			"componentType":5126,
			"count":4,
			"type":"VEC3"
		},
		{
			"bufferView":199,
			"componentType":5126,
			"count":4,
			"type":"VEC2"
		},
		{
			"bufferView":200,
			"componentType":5126,
			"count":4,
			"type":"VEC4"
		},
		{
			"bufferView":201,
			"componentType":5123,
			"count":6,
			"type":"SCALAR"
		},
		{
			"bufferView":202,
			"componentType":5126,
			"count":4,
			"max":[
				-29.022762298583984,
				31.046077728271484,
				0.3352850079536438
			],
			"min":[
				-68.28506469726562,
				-31.046077728271484,
				-4.551187038421631
			],
			"type":"VEC3"
		},
		{
			"bufferView":203,
			"componentType":5126,
			"count":4,
			"type":"VEC3"
		},
		{
			"bufferView":204,
			"componentType":5126,
			"count":4,
			"type":"VEC2"
		},
		{
			"bufferView":205,
			"componentType":5126,
			"count":4,
			"type":"VEC4"
		},
		{
			"bufferView":206,
			"componentType":5126,
			"count":1984,
			"max":[
				-24.96746063232422,
				-8.040545463562012,
				3.007664918899536
			],
			"min":[
				-37.76203155517578,
				-20.835119247436523,
				-3.4968490600585938
			],
			"type":"VEC3"
		},
		{
			"bufferView":207,
			"componentType":5126,
			"count":1984,
			"type":"VEC3"
		},
		{
			"bufferView":208,
			"componentType":5126,
			"count":1984,
			"type":"VEC2"
		},
		{
			"bufferView":209,
			"componentType":5126,
			"count":1984,
			"type":"VEC4"
		},
		{
			"bufferView":210,
			"componentType":5123,
			"count":2880,
			"type":"SCALAR"
		}
	],
	"bufferViews":[
		{
			"buffer":0,
			"byteLength":288,
			"byteOffset":0,
			"target":34962
		},
		{
			"buffer":0,
			"byteLength":288,
			"byteOffset":288,
			"target":34962
		},
		{
			"buffer":0,
			"byteLength":192,
			"byteOffset":576,
			"target":34962
		},
		{
			"buffer":0,
			"byteLength":384,
			"byteOffset":768,
			"target":34962
		},
		{
			"buffer":0,
			"byteLength":72,
			"byteOffset":1152,
			"target":34963
		},
		{
			"buffer":0,
			"byteLength":288,
			"byteOffset":1224,
			"target":34962
		},
		{
			"buffer":0,
			"byteLength":288,
			"byteOffset":1512,
			"target":34962
		},
		{
			"buffer":0,
			"byteLength":192,
			"byteOffset":1800,
			"target":34962
		},
		{
			"buffer":0,
			"byteLength":384,
			"byteOffset":1992,
			"target":34962
		},
		{
			"buffer":0,
			"byteLength":72,
			"byteOffset":2376,
			"target":34963
		},
		{
			"buffer":0,
			"byteLength":288,
			"byteOffset":2448,
			"target":34962
		},
		{
			"buffer":0,
			"byteLength":288,
			"byteOffset":2736,
			"target":34962
		},
		{
			"buffer":0,
			"byteLength":192,
			"byteOffset":3024,
			"target":34962
		},
		{
			"buffer":0,
			"byteLength":384,
			"byteOffset":3216,
			"target":34962
		},
		{
			"buffer":0,
			"byteLength":72,
			"byteOffset":3600,
			"target":34963
		},
		{
			"buffer":0,
			"byteLength":288,
			"byteOffset":3672,
			"target":34962
		},
		{
			"buffer":0,
			"byteLength":288,
			"byteOffset":3960,
			"target":34962
		},
		{
			"buffer":0,
			"byteLength":192,
			"byteOffset":4248,
			"target":34962
		},
		{
			"buffer":0,
			"byteLength":384,
			"byteOffset":4440,
			"target":34962
		},
		{
			"buffer":0,
			"byteLength":72,
			"byteOffset":4824,
			"target":34963
		},
		{
			"buffer":0,
			"byteLength":288,
			"byteOffset":4896,
			"target":34962
		},
		{
			"buffer":0,
			"byteLength":288,
			"byteOffset":5184,
			"target":34962
		},
		{
			"buffer":0,
			"byteLength":192,
			"byteOffset":5472,
			"target":34962
		},
		{
			"buffer":0,
			"byteLength":384,
			"byteOffset":5664,
			"target":34962
		},
		{
			"buffer":0,
			"byteLength":288,
			"byteOffset":6048,
			"target":34962
		},
		{
			"buffer":0,
			"byteLength":288,
			"byteOffset":6336,
			"target":34962
		},
		{
			"buffer":0,
			"byteLength":192,
			"byteOffset":6624,
			"target":34962
		},
		{
			"buffer":0,
			"byteLength":384,
			"byteOffset":6816,
			"target":34962
		},
		{
			"buffer":0,
			"byteLength":72,
			"byteOffset":7200,
			"target":34963
		},
		{
			"buffer":0,
			"byteLength":288,
			"byteOffset":7272,
			"target":34962
		},
		{
			"buffer":0,
			"byteLength":288,
			"byteOffset":7560,
			"target":34962
		},
		{
			"buffer":0,
			"byteLength":192,
			"byteOffset":7848,
			"target":34962
		},
		{
			"buffer":0,
			"byteLength":384,
			"byteOffset":8040,
			"target":34962
		},
		{
			"buffer":0,
			"byteLength":288,
			"byteOffset":8424,
			"target":34962
		},
		{
			"buffer":0,
			"byteLength":288,
			"byteOffset":8712,
			"target":34962
		},
		{
			"buffer":0,
			"byteLength":192,
			"byteOffset":9000,
			"target":34962
		},
		{
			"buffer":0,
			"byteLength":384,
			"byteOffset":9192,
			"target":34962
		},
		{
			"buffer":0,
			"byteLength":288,
			"byteOffset":9576,
			"target":34962
		},
		{
			"buffer":0,
			"byteLength":288,
			"byteOffset":9864,
			"target":34962
		},
		{
			"buffer":0,
			"byteLength":192,
			"byteOffset":10152,
			"target":34962
		},
		{
			"buffer":0,
			"byteLength":384,
			"byteOffset":10344,
			"target":34962
		},
		{
			"buffer":0,
			"byteLength":288,
			"byteOffset":10728,
			"target":34962
		},
		{
			"buffer":0,
			"byteLength":288,
			"byteOffset":11016,
			"target":34962
		},
		{
			"buffer":0,
			"byteLength":192,
			"byteOffset":11304,
			"target":34962
		},
		{
			"buffer":0,
			"byteLength":384,
			"byteOffset":11496,
			"target":34962
		},
		{
			"buffer":0,
			"byteLength":288,
			"byteOffset":11880,
			"target":34962
		},
		{
			"buffer":0,
			"byteLength":288,
			"byteOffset":12168,
			"target":34962
		},
		{
			"buffer":0,
			"byteLength":192,
			"byteOffset":12456,
			"target":34962
		},
		{
			"buffer":0,
			"byteLength":384,
			"byteOffset":12648,
			"target":34962
		},
		{
			"buffer":0,
			"byteLength":288,
			"byteOffset":13032,
			"target":34962
		},
		{
			"buffer":0,
			"byteLength":288,
			"byteOffset":13320,
			"target":34962
		},
		{
			"buffer":0,
			"byteLength":192,
			"byteOffset":13608,
			"target":34962
		},
		{
			"buffer":0,
			"byteLength":384,
			"byteOffset":13800,
			"target":34962
		},
		{
			"buffer":0,
			"byteLength":288,
			"byteOffset":14184,
			"target":34962
		},
		{
			"buffer":0,
			"byteLength":288,
			"byteOffset":14472,
			"target":34962
		},
		{
			"buffer":0,
			"byteLength":192,
			"byteOffset":14760,
			"target":34962
		},
		{
			"buffer":0,
			"byteLength":384,
			"byteOffset":14952,
			"target":34962
		},
		{
			"buffer":0,
			"byteLength":288,
			"byteOffset":15336,
			"target":34962
		},
		{
			"buffer":0,
			"byteLength":288,
			"byteOffset":15624,
			"target":34962
		},
		{
			"buffer":0,
			"byteLength":192,
			"byteOffset":15912,
			"target":34962
		},
		{
			"buffer":0,
			"byteLength":384,
			"byteOffset":16104,
			"target":34962
		},
		{
			"buffer":0,
			"byteLength":288,
			"byteOffset":16488,
			"target":34962
		},
		{
			"buffer":0,
			"byteLength":288,
			"byteOffset":16776,
			"target":34962
		},
		{
			"buffer":0,
			"byteLength":192,
			"byteOffset":17064,
			"target":34962
		},
		{
			"buffer":0,
			"byteLength":384,
			"byteOffset":17256,
			"target":34962
		},
		{
			"buffer":0,
			"byteLength":288,
			"byteOffset":17640,
			"target":34962
		},
		{
			"buffer":0,
			"byteLength":288,
			"byteOffset":17928,
			"target":34962
		},
		{
			"buffer":0,
			"byteLength":192,
			"byteOffset":18216,
			"target":34962
		},
		{
			"buffer":0,
			"byteLength":384,
			"byteOffset":18408,
			"target":34962
		},
		{
			"buffer":0,
			"byteLength":288,
			"byteOffset":18792,
			"target":34962
		},
		{
			"buffer":0,
			"byteLength":288,
			"byteOffset":19080,
			"target":34962
		},
		{
			"buffer":0,
			"byteLength":192,
			"byteOffset":19368,
			"target":34962
		},
		{
			"buffer":0,
			"byteLength":384,
			"byteOffset":19560,
			"target":34962
		},
		{
			"buffer":0,
			"byteLength":288,
			"byteOffset":19944,
			"target":34962
		},
		{
			"buffer":0,
			"byteLength":288,
			"byteOffset":20232,
			"target":34962
		},
		{
			"buffer":0,
			"byteLength":192,
			"byteOffset":20520,
			"target":34962
		},
		{
			"buffer":0,
			"byteLength":384,
			"byteOffset":20712,
			"target":34962
		},
		{
			"buffer":0,
			"byteLength":288,
			"byteOffset":21096,
			"target":34962
		},
		{
			"buffer":0,
			"byteLength":288,
			"byteOffset":21384,
			"target":34962
		},
		{
			"buffer":0,
			"byteLength":192,
			"byteOffset":21672,
			"target":34962
		},
		{
			"buffer":0,
			"byteLength":384,
			"byteOffset":21864,
			"target":34962
		},
		{
			"buffer":0,
			"byteLength":288,
			"byteOffset":22248,
			"target":34962
		},
		{
			"buffer":0,
			"byteLength":288,
			"byteOffset":22536,
			"target":34962
		},
		{
			"buffer":0,
			"byteLength":192,
			"byteOffset":22824,
			"target":34962
		},
		{
			"buffer":0,
			"byteLength":384,
			"byteOffset":23016,
			"target":34962
		},
		{
			"buffer":0,
			"byteLength":288,
			"byteOffset":23400,
			"target":34962
		},
		{
			"buffer":0,
			"byteLength":288,
			"byteOffset":23688,
			"target":34962
		},
		{
			"buffer":0,
			"byteLength":192,
			"byteOffset":23976,
			"target":34962
		},
		{
			"buffer":0,
			"byteLength":384,
			"byteOffset":24168,
			"target":34962
		},
		{
			"buffer":0,
			"byteLength":288,
			"byteOffset":24552,
			"target":34962
		},
		{
			"buffer":0,
			"byteLength":288,
			"byteOffset":24840,
			"target":34962
		},
		{
			"buffer":0,
			"byteLength":192,
			"byteOffset":25128,
			"target":34962
		},
		{
			"buffer":0,
			"byteLength":384,
			"byteOffset":25320,
			"target":34962
		},
		{
			"buffer":0,
			"byteLength":288,
			"byteOffset":25704,
			"target":34962
		},
		{
			"buffer":0,
			"byteLength":288,
			"byteOffset":25992,
			"target":34962
		},
		{
			"buffer":0,
			"byteLength":192,
			"byteOffset":26280,
			"target":34962
		},
		{
			"buffer":0,
			"byteLength":384,
			"byteOffset":26472,
			"target":34962
		},
		{
			"buffer":0,
			"byteLength":288,
			"byteOffset":26856,
			"target":34962
		},
		{
			"buffer":0,
			"byteLength":288,
			"byteOffset":27144,
			"target":34962
		},
		{
			"buffer":0,
			"byteLength":192,
			"byteOffset":27432,
			"target":34962
		},
		{
			"buffer":0,
			"byteLength":384,
			"byteOffset":27624,
			"target":34962
		},
		{
			"buffer":0,
			"byteLength":288,
			"byteOffset":28008,
			"target":34962
		},
		{
			"buffer":0,
			"byteLength":288,
			"byteOffset":28296,
			"target":34962
		},
		{
			"buffer":0,
			"byteLength":192,
			"byteOffset":28584,
			"target":34962
		},
		{
			"buffer":0,
			"byteLength":384,
			"byteOffset":28776,
			"target":34962
		},
		{
			"buffer":0,
			"byteLength":288,
			"byteOffset":29160,
			"target":34962
		},
		{
			"buffer":0,
			"byteLength":288,
			"byteOffset":29448,
			"target":34962
		},
		{
			"buffer":0,
			"byteLength":192,
			"byteOffset":29736,
			"target":34962
		},
		{
			"buffer":0,
			"byteLength":384,
			"byteOffset":29928,
			"target":34962
		},
		{
			"buffer":0,
			"byteLength":288,
			"byteOffset":30312,
			"target":34962
		},
		{
			"buffer":0,
			"byteLength":288,
			"byteOffset":30600,
			"target":34962
		},
		{
			"buffer":0,
			"byteLength":192,
			"byteOffset":30888,
			"target":34962
		},
		{
			"buffer":0,
			"byteLength":384,
			"byteOffset":31080,
			"target":34962
		},
		{
			"buffer":0,
			"byteLength":288,
			"byteOffset":31464,
			"target":34962
		},
		{
			"buffer":0,
			"byteLength":288,
			"byteOffset":31752,
			"target":34962
		},
		{
			"buffer":0,
			"byteLength":192,
			"byteOffset":32040,
			"target":34962
		},
		{
			"buffer":0,
			"byteLength":384,
			"byteOffset":32232,
			"target":34962
		},
		{
			"buffer":0,
			"byteLength":288,
			"byteOffset":32616,
			"target":34962
		},
		{
			"buffer":0,
			"byteLength":288,
			"byteOffset":32904,
			"target":34962
		},
		{
			"buffer":0,
			"byteLength":192,
			"byteOffset":33192,
			"target":34962
		},
		{
			"buffer":0,
			"byteLength":384,
			"byteOffset":33384,
			"target":34962
		},
		{
			"buffer":0,
			"byteLength":288,
			"byteOffset":33768,
			"target":34962
		},
		{
			"buffer":0,
			"byteLength":288,
			"byteOffset":34056,
			"target":34962
		},
		{
			"buffer":0,
			"byteLength":192,
			"byteOffset":34344,
			"target":34962
		},
		{
			"buffer":0,
			"byteLength":384,
			"byteOffset":34536,
			"target":34962
		},
		{
			"buffer":0,
			"byteLength":288,
			"byteOffset":34920,
			"target":34962
		},
		{
			"buffer":0,
			"byteLength":288,
			"byteOffset":35208,
			"target":34962
		},
		{
			"buffer":0,
			"byteLength":192,
			"byteOffset":35496,
			"target":34962
		},
		{
			"buffer":0,
			"byteLength":384,
			"byteOffset":35688,
			"target":34962
		},
		{
			"buffer":0,
			"byteLength":288,
			"byteOffset":36072,
			"target":34962
		},
		{
			"buffer":0,
			"byteLength":288,
			"byteOffset":36360,
			"target":34962
		},
		{
			"buffer":0,
			"byteLength":192,
			"byteOffset":36648,
			"target":34962
		},
		{
			"buffer":0,
			"byteLength":384,
			"byteOffset":36840,
			"target":34962
		},
		{
			"buffer":0,
			"byteLength":288,
			"byteOffset":37224,
			"target":34962
		},
		{
			"buffer":0,
			"byteLength":288,
			"byteOffset":37512,
			"target":34962
		},
		{
			"buffer":0,
			"byteLength":192,
			"byteOffset":37800,
			"target":34962
		},
		{
			"buffer":0,
			"byteLength":384,
			"byteOffset":37992,
			"target":34962
		},
		{
			"buffer":0,
			"byteLength":288,
			"byteOffset":38376,
			"target":34962
		},
		{
			"buffer":0,
			"byteLength":288,
			"byteOffset":38664,
			"target":34962
		},
		{
			"buffer":0,
			"byteLength":192,
			"byteOffset":38952,
			"target":34962
		},
		{
			"buffer":0,
			"byteLength":384,
			"byteOffset":39144,
			"target":34962
		},
		{
			"buffer":0,
			"byteLength":288,
			"byteOffset":39528,
			"target":34962
		},
		{
			"buffer":0,
			"byteLength":288,
			"byteOffset":39816,
			"target":34962
		},
		{
			"buffer":0,
			"byteLength":192,
			"byteOffset":40104,
			"target":34962
		},
		{
			"buffer":0,
			"byteLength":384,
			"byteOffset":40296,
			"target":34962
		},
		{
			"buffer":0,
			"byteLength":3720,
			"byteOffset":40680,
			"target":34962
		},
		{
			"buffer":0,
			"byteLength":3720,
			"byteOffset":44400,
			"target":34962
		},
		{
			"buffer":0,
			"byteLength":2480,
			"byteOffset":48120,
			"target":34962
		},
		{
			"buffer":0,
			"byteLength":948,
			"byteOffset":50600,
			"target":34963
		},
		{
			"buffer":0,
			"byteLength":3720,
			"byteOffset":51548,
			"target":34962
		},
		{
			"buffer":0,
			"byteLength":3720,
			"byteOffset":55268,
			"target":34962
		},
		{
			"buffer":0,
			"byteLength":2480,
			"byteOffset":58988,
			"target":34962
		},
		{
			"buffer":0,
			"byteLength":288,
			"byteOffset":61468,
			"target":34962
		},
		{
			"buffer":0,
			"byteLength":288,
			"byteOffset":61756,
			"target":34962
		},
		{
			"buffer":0,
			"byteLength":192,
			"byteOffset":62044,
			"target":34962
		},
		{
			"buffer":0,
			"byteLength":384,
			"byteOffset":62236,
			"target":34962
		},
		{
			"buffer":0,
			"byteLength":288,
			"byteOffset":62620,
			"target":34962
		},
		{
			"buffer":0,
			"byteLength":288,
			"byteOffset":62908,
			"target":34962
		},
		{
			"buffer":0,
			"byteLength":192,
			"byteOffset":63196,
			"target":34962
		},
		{
			"buffer":0,
			"byteLength":384,
			"byteOffset":63388,
			"target":34962
		},
		{
			"buffer":0,
			"byteLength":72,
			"byteOffset":63772,
			"target":34963
		},
		{
			"buffer":0,
			"byteLength":288,
			"byteOffset":63844,
			"target":34962
		},
		{
			"buffer":0,
			"byteLength":288,
			"byteOffset":64132,
			"target":34962
		},
		{
			"buffer":0,
			"byteLength":192,
			"byteOffset":64420,
			"target":34962
		},
		{
			"buffer":0,
			"byteLength":384,
			"byteOffset":64612,
			"target":34962
		},
		{
			"buffer":0,
			"byteLength":288,
			"byteOffset":64996,
			"target":34962
		},
		{
			"buffer":0,
			"byteLength":288,
			"byteOffset":65284,
			"target":34962
		},
		{
			"buffer":0,
			"byteLength":192,
			"byteOffset":65572,
			"target":34962
		},
		{
			"buffer":0,
			"byteLength":384,
			"byteOffset":65764,
			"target":34962
		},
		{
			"buffer":0,
			"byteLength":288,
			"byteOffset":66148,
			"target":34962
		},
		{
			"buffer":0,
			"byteLength":288,
			"byteOffset":66436,
			"target":34962
		},
		{
			"buffer":0,
			"byteLength":192,
			"byteOffset":66724,
			"target":34962
		},
		{
			"buffer":0,
			"byteLength":384,
			"byteOffset":66916,
			"target":34962
		},
		{
			"buffer":0,
			"byteLength":288,
			"byteOffset":67300,
			"target":34962
		},
		{
			"buffer":0,
			"byteLength":288,
			"byteOffset":67588,
			"target":34962
		},
		{
			"buffer":0,
			"byteLength":192,
			"byteOffset":67876,
			"target":34962
		},
		{
			"buffer":0,
			"byteLength":384,
			"byteOffset":68068,
			"target":34962
		},
		{
			"buffer":0,
			"byteLength":288,
			"byteOffset":68452,
			"target":34962
		},
		{
			"buffer":0,
			"byteLength":288,
			"byteOffset":68740,
			"target":34962
		},
		{
			"buffer":0,
			"byteLength":192,
			"byteOffset":69028,
			"target":34962
		},
		{
			"buffer":0,
			"byteLength":384,
			"byteOffset":69220,
			"target":34962
		},
		{
			"buffer":0,
			"byteLength":288,
			"byteOffset":69604,
			"target":34962
		},
		{
			"buffer":0,
			"byteLength":288,
			"byteOffset":69892,
			"target":34962
		},
		{
			"buffer":0,
			"byteLength":192,
			"byteOffset":70180,
			"target":34962
		},
		{
			"buffer":0,
			"byteLength":384,
			"byteOffset":70372,
			"target":34962
		},
		{
			"buffer":0,
			"byteLength":288,
			"byteOffset":70756,
			"target":34962
		},
		{
			"buffer":0,
			"byteLength":288,
			"byteOffset":71044,
			"target":34962
		},
		{
			"buffer":0,
			"byteLength":192,
			"byteOffset":71332,
			"target":34962
		},
		{
			"buffer":0,
			"byteLength":384,
			"byteOffset":71524,
			"target":34962
		},
		{
			"buffer":0,
			"byteLength":288,
			"byteOffset":71908,
			"target":34962
		},
		{
			"buffer":0,
			"byteLength":288,
			"byteOffset":72196,
			"target":34962
		},
		{
			"buffer":0,
			"byteLength":192,
			"byteOffset":72484,
			"target":34962
		},
		{
			"buffer":0,
			"byteLength":384,
			"byteOffset":72676,
			"target":34962
		},
		{
			"buffer":0,
			"byteLength":288,
			"byteOffset":73060,
			"target":34962
		},
		{
			"buffer":0,
			"byteLength":288,
			"byteOffset":73348,
			"target":34962
		},
		{
			"buffer":0,
			"byteLength":192,
			"byteOffset":73636,
			"target":34962
		},
		{
			"buffer":0,
			"byteLength":384,
			"byteOffset":73828,
			"target":34962
		},
		{
			"buffer":0,
			"byteLength":48,
			"byteOffset":74212,
			"target":34962
		},
		{
			"buffer":0,
			"byteLength":48,
			"byteOffset":74260,
			"target":34962
		},
		{
			"buffer":0,
			"byteLength":32,
			"byteOffset":74308,
			"target":34962
		},
		{
			"buffer":0,
			"byteLength":64,
			"byteOffset":74340,
			"target":34962
		},
		{
			"buffer":0,
			"byteLength":12,
			"byteOffset":74404,
			"target":34963
		},
		{
			"buffer":0,
			"byteLength":48,
			"byteOffset":74416,
			"target":34962
		},
		{
			"buffer":0,
			"byteLength":48,
			"byteOffset":74464,
			"target":34962
		},
		{
			"buffer":0,
			"byteLength":32,
			"byteOffset":74512,
			"target":34962
		},
		{
			"buffer":0,
			"byteLength":64,
			"byteOffset":74544,
			"target":34962
		},
		{
			"buffer":0,
			"byteLength":23808,
			"byteOffset":74608,
			"target":34962
		},
		{
			"buffer":0,
			"byteLength":23808,
			"byteOffset":98416,
			"target":34962
		},
		{
			"buffer":0,
			"byteLength":15872,
			"byteOffset":122224,
			"target":34962
		},
		{
			"buffer":0,
			"byteLength":31744,
			"byteOffset":138096,
			"target":34962
		},
		{
			"buffer":0,
			"byteLength":5760,
			"byteOffset":169840,
			"target":34963
		}
	],
	"buffers":[
		{
			"byteLength":175600,
			"uri":"map04.bin"
		}
	]
}
