{
	"asset":{
		"generator":"Khronos glTF Blender I/O v4.1.63",
		"version":"2.0"
	},
	"scene":0,
	"scenes":[
		{
			"name":"Scene",
			"nodes":[
				0,
				1,
				2,
				3,
				4,
				5,
				6,
				7,
				8,
				9,
				10
			]
		}
	],
	"nodes":[
		{
			"mesh":0,
			"name":"bush01",
			"rotation":[
				0.7071066498756409,
				0,
				0,
				0.70710688829422
			],
			"scale":[
				0.009999999776482582,
				0.009999999776482582,
				0.009999999776482582
			],
			"translation":[
				16.888717651367188,
				0,
				4.644930839538574
			]
		},
		{
			"mesh":1,
			"name":"bush03",
			"rotation":[
				0.7071066498756409,
				0,
				0,
				0.70710688829422
			],
			"scale":[
				0.009999999776482582,
				0.009999999776482582,
				0.009999999776482582
			],
			"translation":[
				0.5469799041748047,
				0,
				24.140594482421875
			]
		},
		{
			"mesh":2,
			"name":"bush05",
			"rotation":[
				0.7071066498756409,
				0,
				0,
				0.70710688829422
			],
			"scale":[
				0.009999999776482582,
				0.009999999776482582,
				0.009999999776482582
			],
			"translation":[
				-2.1188912391662598,
				0,
				-16.509979248046875
			]
		},
		{
			"mesh":3,
			"name":"bush07",
			"rotation":[
				0.7071066498756409,
				0,
				0,
				0.70710688829422
			],
			"scale":[
				0.009999999776482582,
				0.009999999776482582,
				0.009999999776482582
			],
			"translation":[
				15.84652328491211,
				0,
				-15.19908618927002
			]
		},
		{
			"mesh":4,
			"name":"tree02",
			"rotation":[
				0.7071066498756409,
				0,
				0,
				0.70710688829422
			],
			"scale":[
				0.009999999776482582,
				0.009999999776482582,
				0.009999999776482582
			],
			"translation":[
				-7.534972190856934,
				0,
				-4.9699578285217285
			]
		},
		{
			"mesh":5,
			"name":"tree04",
			"rotation":[
				0.7071066498756409,
				0,
				0,
				0.70710688829422
			],
			"scale":[
				0.009999999776482582,
				0.009999999776482582,
				0.009999999776482582
			],
			"translation":[
				-21.961524963378906,
				0,
				-2.4305500984191895
			]
		},
		{
			"mesh":6,
			"name":"tree06",
			"rotation":[
				0.7071066498756409,
				0,
				0,
				0.70710688829422
			],
			"scale":[
				0.009999999776482582,
				0.009999999776482582,
				0.009999999776482582
			],
			"translation":[
				-8.763908386230469,
				0,
				-23.903030395507812
			]
		},
		{
			"mesh":7,
			"name":"tree08",
			"rotation":[
				0.7071066498756409,
				0,
				0,
				0.70710688829422
			],
			"scale":[
				0.009999999776482582,
				0.009999999776482582,
				0.009999999776482582
			],
			"translation":[
				-25.03827667236328,
				0,
				-15.185661315917969
			]
		},
		{
			"mesh":8,
			"name":"tree10",
			"rotation":[
				0.7071066498756409,
				0,
				0,
				0.70710688829422
			],
			"scale":[
				0.009999999776482582,
				0.009999999776482582,
				0.009999999776482582
			],
			"translation":[
				-27.670528411865234,
				0,
				6.598441123962402
			]
		},
		{
			"mesh":9,
			"name":"tree12",
			"rotation":[
				0.7071066498756409,
				0,
				0,
				0.70710688829422
			],
			"scale":[
				0.009999999776482582,
				0.009999999776482582,
				0.009999999776482582
			],
			"translation":[
				0.23880362510681152,
				0,
				0.48904603719711304
			]
		},
		{
			"mesh":10,
			"name":"tree14",
			"rotation":[
				0.7071066498756409,
				0,
				0,
				0.70710688829422
			],
			"scale":[
				0.009999999776482582,
				0.009999999776482582,
				0.009999999776482582
			],
			"translation":[
				-12.019633293151855,
				0,
				15.636407852172852
			]
		}
	],
	"materials":[
		{
			"doubleSided":true,
			"name":"bush01",
			"pbrMetallicRoughness":{
				"baseColorTexture":{
					"index":0
				},
				"metallicFactor":0,
				"roughnessFactor":0.4000000059604645
			}
		},
		{
			"doubleSided":true,
			"name":"bush03",
			"pbrMetallicRoughness":{
				"baseColorTexture":{
					"index":1
				},
				"metallicFactor":0,
				"roughnessFactor":0.4000000059604645
			}
		},
		{
			"doubleSided":true,
			"name":"bush05",
			"pbrMetallicRoughness":{
				"baseColorTexture":{
					"index":2
				},
				"metallicFactor":0,
				"roughnessFactor":0.4000000059604645
			}
		},
		{
			"doubleSided":true,
			"name":"bush07",
			"pbrMetallicRoughness":{
				"baseColorTexture":{
					"index":3
				},
				"metallicFactor":0,
				"roughnessFactor":0.4000000059604645
			}
		},
		{
			"doubleSided":true,
			"name":"tree02.001",
			"pbrMetallicRoughness":{
				"baseColorTexture":{
					"index":4
				},
				"metallicFactor":0,
				"roughnessFactor":0.4000000059604645
			}
		},
		{
			"doubleSided":true,
			"name":"tree04",
			"pbrMetallicRoughness":{
				"baseColorTexture":{
					"index":5
				},
				"metallicFactor":0,
				"roughnessFactor":0.4000000059604645
			}
		},
		{
			"doubleSided":true,
			"name":"tree06",
			"pbrMetallicRoughness":{
				"baseColorTexture":{
					"index":6
				},
				"metallicFactor":0,
				"roughnessFactor":0.4000000059604645
			}
		},
		{
			"doubleSided":true,
			"name":"tree08",
			"pbrMetallicRoughness":{
				"baseColorTexture":{
					"index":7
				},
				"metallicFactor":0,
				"roughnessFactor":0.4000000059604645
			}
		},
		{
			"doubleSided":true,
			"name":"tree10",
			"pbrMetallicRoughness":{
				"baseColorTexture":{
					"index":8
				},
				"metallicFactor":0,
				"roughnessFactor":0.4000000059604645
			}
		},
		{
			"doubleSided":true,
			"name":"tree12",
			"pbrMetallicRoughness":{
				"baseColorTexture":{
					"index":9
				},
				"metallicFactor":0,
				"roughnessFactor":0.4000000059604645
			}
		},
		{
			"doubleSided":true,
			"name":"tree14",
			"pbrMetallicRoughness":{
				"baseColorTexture":{
					"index":10
				},
				"metallicFactor":0,
				"roughnessFactor":0.4000000059604645
			}
		}
	],
	"meshes":[
		{
			"name":"bush01",
			"primitives":[
				{
					"attributes":{
						"POSITION":0,
						"NORMAL":1,
						"TEXCOORD_0":2
					},
					"indices":3,
					"material":0
				}
			]
		},
		{
			"name":"bush03",
			"primitives":[
				{
					"attributes":{
						"POSITION":4,
						"NORMAL":5,
						"TEXCOORD_0":6
					},
					"indices":7,
					"material":1
				}
			]
		},
		{
			"name":"bush05",
			"primitives":[
				{
					"attributes":{
						"POSITION":8,
						"NORMAL":9,
						"TEXCOORD_0":10
					},
					"indices":11,
					"material":2
				}
			]
		},
		{
			"name":"bush07",
			"primitives":[
				{
					"attributes":{
						"POSITION":12,
						"NORMAL":13,
						"TEXCOORD_0":14
					},
					"indices":15,
					"material":3
				}
			]
		},
		{
			"name":"tree02",
			"primitives":[
				{
					"attributes":{
						"POSITION":16,
						"NORMAL":17,
						"TEXCOORD_0":18
					},
					"indices":19,
					"material":4
				}
			]
		},
		{
			"name":"tree04",
			"primitives":[
				{
					"attributes":{
						"POSITION":20,
						"NORMAL":21,
						"TEXCOORD_0":22
					},
					"indices":23,
					"material":5
				}
			]
		},
		{
			"name":"tree06",
			"primitives":[
				{
					"attributes":{
						"POSITION":24,
						"NORMAL":25,
						"TEXCOORD_0":26
					},
					"indices":27,
					"material":6
				}
			]
		},
		{
			"name":"tree08",
			"primitives":[
				{
					"attributes":{
						"POSITION":28,
						"NORMAL":29,
						"TEXCOORD_0":30
					},
					"indices":31,
					"material":7
				}
			]
		},
		{
			"name":"tree10",
			"primitives":[
				{
					"attributes":{
						"POSITION":32,
						"NORMAL":33,
						"TEXCOORD_0":34
					},
					"indices":35,
					"material":8
				}
			]
		},
		{
			"name":"tree12",
			"primitives":[
				{
					"attributes":{
						"POSITION":36,
						"NORMAL":37,
						"TEXCOORD_0":38
					},
					"indices":39,
					"material":9
				}
			]
		},
		{
			"name":"tree14",
			"primitives":[
				{
					"attributes":{
						"POSITION":40,
						"NORMAL":41,
						"TEXCOORD_0":42
					},
					"indices":43,
					"material":10
				}
			]
		}
	],
	"textures":[
		{
			"sampler":0,
			"source":0
		},
		{
			"sampler":0,
			"source":1
		},
		{
			"sampler":0,
			"source":2
		},
		{
			"sampler":0,
			"source":3
		},
		{
			"sampler":0,
			"source":4
		},
		{
			"sampler":0,
			"source":5
		},
		{
			"sampler":0,
			"source":6
		},
		{
			"sampler":0,
			"source":7
		},
		{
			"sampler":0,
			"source":8
		},
		{
			"sampler":0,
			"source":9
		},
		{
			"sampler":0,
			"source":10
		}
	],
	"images":[
		{
			"mimeType":"image/png",
			"name":"bush01",
			"uri":"bush01.png"
		},
		{
			"mimeType":"image/png",
			"name":"bush03",
			"uri":"bush03.png"
		},
		{
			"mimeType":"image/png",
			"name":"bush05",
			"uri":"bush05.png"
		},
		{
			"mimeType":"image/png",
			"name":"bush07",
			"uri":"bush07.png"
		},
		{
			"mimeType":"image/png",
			"name":"tree02",
			"uri":"tree02.png"
		},
		{
			"mimeType":"image/png",
			"name":"tree04",
			"uri":"tree04.png"
		},
		{
			"mimeType":"image/png",
			"name":"tree06",
			"uri":"tree06.png"
		},
		{
			"mimeType":"image/png",
			"name":"tree08",
			"uri":"tree08.png"
		},
		{
			"mimeType":"image/png",
			"name":"tree10",
			"uri":"tree10.png"
		},
		{
			"mimeType":"image/png",
			"name":"tree12",
			"uri":"tree12.png"
		},
		{
			"mimeType":"image/png",
			"name":"tree14",
			"uri":"tree14.png"
		}
	],
	"accessors":[
		{
			"bufferView":0,
			"componentType":5126,
			"count":32,
			"max":[
				419.9999694824219,
				420.0000305175781,
				0
			],
			"min":[
				-419.9999694824219,
				-419.9999694824219,
				-750
			],
			"type":"VEC3"
		},
		{
			"bufferView":1,
			"componentType":5126,
			"count":32,
			"type":"VEC3"
		},
		{
			"bufferView":2,
			"componentType":5126,
			"count":32,
			"type":"VEC2"
		},
		{
			"bufferView":3,
			"componentType":5123,
			"count":48,
			"type":"SCALAR"
		},
		{
			"bufferView":4,
			"componentType":5126,
			"count":32,
			"max":[
				360,
				360.0000305175781,
				0
			],
			"min":[
				-360,
				-360,
				-750
			],
			"type":"VEC3"
		},
		{
			"bufferView":5,
			"componentType":5126,
			"count":32,
			"type":"VEC3"
		},
		{
			"bufferView":6,
			"componentType":5126,
			"count":32,
			"type":"VEC2"
		},
		{
			"bufferView":7,
			"componentType":5123,
			"count":48,
			"type":"SCALAR"
		},
		{
			"bufferView":8,
			"componentType":5126,
			"count":32,
			"max":[
				480.0000305175781,
				480.00006103515625,
				0
			],
			"min":[
				-480.0000305175781,
				-480.0000305175781,
				-750
			],
			"type":"VEC3"
		},
		{
			"bufferView":9,
			"componentType":5126,
			"count":32,
			"type":"VEC3"
		},
		{
			"bufferView":10,
			"componentType":5126,
			"count":32,
			"type":"VEC2"
		},
		{
			"bufferView":11,
			"componentType":5123,
			"count":48,
			"type":"SCALAR"
		},
		{
			"bufferView":12,
			"componentType":5126,
			"count":32,
			"max":[
				546,
				546.0000610351562,
				0
			],
			"min":[
				-546,
				-546,
				-750
			],
			"type":"VEC3"
		},
		{
			"bufferView":13,
			"componentType":5126,
			"count":32,
			"type":"VEC3"
		},
		{
			"bufferView":14,
			"componentType":5126,
			"count":32,
			"type":"VEC2"
		},
		{
			"bufferView":15,
			"componentType":5123,
			"count":48,
			"type":"SCALAR"
		},
		{
			"bufferView":16,
			"componentType":5126,
			"count":105,
			"max":[
				300,
				300.0000305175781,
				0
			],
			"min":[
				-300,
				-300,
				-1250
			],
			"type":"VEC3"
		},
		{
			"bufferView":17,
			"componentType":5126,
			"count":105,
			"type":"VEC3"
		},
		{
			"bufferView":18,
			"componentType":5126,
			"count":105,
			"type":"VEC2"
		},
		{
			"bufferView":19,
			"componentType":5123,
			"count":156,
			"type":"SCALAR"
		},
		{
			"bufferView":20,
			"componentType":5126,
			"count":105,
			"max":[
				300,
				300.0000305175781,
				0
			],
			"min":[
				-300,
				-300,
				-1250
			],
			"type":"VEC3"
		},
		{
			"bufferView":21,
			"componentType":5126,
			"count":105,
			"type":"VEC3"
		},
		{
			"bufferView":22,
			"componentType":5126,
			"count":105,
			"type":"VEC2"
		},
		{
			"bufferView":23,
			"componentType":5123,
			"count":156,
			"type":"SCALAR"
		},
		{
			"bufferView":24,
			"componentType":5126,
			"count":105,
			"max":[
				300,
				300.0000305175781,
				0
			],
			"min":[
				-300,
				-300,
				-1250
			],
			"type":"VEC3"
		},
		{
			"bufferView":25,
			"componentType":5126,
			"count":105,
			"type":"VEC3"
		},
		{
			"bufferView":26,
			"componentType":5126,
			"count":105,
			"type":"VEC2"
		},
		{
			"bufferView":27,
			"componentType":5123,
			"count":156,
			"type":"SCALAR"
		},
		{
			"bufferView":28,
			"componentType":5126,
			"count":93,
			"max":[
				360,
				360.0000305175781,
				0
			],
			"min":[
				-360,
				-360,
				-1250
			],
			"type":"VEC3"
		},
		{
			"bufferView":29,
			"componentType":5126,
			"count":93,
			"type":"VEC3"
		},
		{
			"bufferView":30,
			"componentType":5126,
			"count":93,
			"type":"VEC2"
		},
		{
			"bufferView":31,
			"componentType":5123,
			"count":156,
			"type":"SCALAR"
		},
		{
			"bufferView":32,
			"componentType":5126,
			"count":105,
			"max":[
				300,
				300.0000305175781,
				0
			],
			"min":[
				-300,
				-300,
				-1250
			],
			"type":"VEC3"
		},
		{
			"bufferView":33,
			"componentType":5126,
			"count":105,
			"type":"VEC3"
		},
		{
			"bufferView":34,
			"componentType":5126,
			"count":105,
			"type":"VEC2"
		},
		{
			"bufferView":35,
			"componentType":5123,
			"count":156,
			"type":"SCALAR"
		},
		{
			"bufferView":36,
			"componentType":5126,
			"count":105,
			"max":[
				300,
				300.0000305175781,
				0
			],
			"min":[
				-300,
				-300,
				-1250
			],
			"type":"VEC3"
		},
		{
			"bufferView":37,
			"componentType":5126,
			"count":105,
			"type":"VEC3"
		},
		{
			"bufferView":38,
			"componentType":5126,
			"count":105,
			"type":"VEC2"
		},
		{
			"bufferView":39,
			"componentType":5123,
			"count":156,
			"type":"SCALAR"
		},
		{
			"bufferView":40,
			"componentType":5126,
			"count":121,
			"max":[
				600.0030517578125,
				600,
				0
			],
			"min":[
				-599.9968872070312,
				-600,
				-1250
			],
			"type":"VEC3"
		},
		{
			"bufferView":41,
			"componentType":5126,
			"count":121,
			"type":"VEC3"
		},
		{
			"bufferView":42,
			"componentType":5126,
			"count":121,
			"type":"VEC2"
		},
		{
			"bufferView":43,
			"componentType":5123,
			"count":156,
			"type":"SCALAR"
		}
	],
	"bufferViews":[
		{
			"buffer":0,
			"byteLength":384,
			"byteOffset":0,
			"target":34962
		},
		{
			"buffer":0,
			"byteLength":384,
			"byteOffset":384,
			"target":34962
		},
		{
			"buffer":0,
			"byteLength":256,
			"byteOffset":768,
			"target":34962
		},
		{
			"buffer":0,
			"byteLength":96,
			"byteOffset":1024,
			"target":34963
		},
		{
			"buffer":0,
			"byteLength":384,
			"byteOffset":1120,
			"target":34962
		},
		{
			"buffer":0,
			"byteLength":384,
			"byteOffset":1504,
			"target":34962
		},
		{
			"buffer":0,
			"byteLength":256,
			"byteOffset":1888,
			"target":34962
		},
		{
			"buffer":0,
			"byteLength":96,
			"byteOffset":2144,
			"target":34963
		},
		{
			"buffer":0,
			"byteLength":384,
			"byteOffset":2240,
			"target":34962
		},
		{
			"buffer":0,
			"byteLength":384,
			"byteOffset":2624,
			"target":34962
		},
		{
			"buffer":0,
			"byteLength":256,
			"byteOffset":3008,
			"target":34962
		},
		{
			"buffer":0,
			"byteLength":96,
			"byteOffset":3264,
			"target":34963
		},
		{
			"buffer":0,
			"byteLength":384,
			"byteOffset":3360,
			"target":34962
		},
		{
			"buffer":0,
			"byteLength":384,
			"byteOffset":3744,
			"target":34962
		},
		{
			"buffer":0,
			"byteLength":256,
			"byteOffset":4128,
			"target":34962
		},
		{
			"buffer":0,
			"byteLength":96,
			"byteOffset":4384,
			"target":34963
		},
		{
			"buffer":0,
			"byteLength":1260,
			"byteOffset":4480,
			"target":34962
		},
		{
			"buffer":0,
			"byteLength":1260,
			"byteOffset":5740,
			"target":34962
		},
		{
			"buffer":0,
			"byteLength":840,
			"byteOffset":7000,
			"target":34962
		},
		{
			"buffer":0,
			"byteLength":312,
			"byteOffset":7840,
			"target":34963
		},
		{
			"buffer":0,
			"byteLength":1260,
			"byteOffset":8152,
			"target":34962
		},
		{
			"buffer":0,
			"byteLength":1260,
			"byteOffset":9412,
			"target":34962
		},
		{
			"buffer":0,
			"byteLength":840,
			"byteOffset":10672,
			"target":34962
		},
		{
			"buffer":0,
			"byteLength":312,
			"byteOffset":11512,
			"target":34963
		},
		{
			"buffer":0,
			"byteLength":1260,
			"byteOffset":11824,
			"target":34962
		},
		{
			"buffer":0,
			"byteLength":1260,
			"byteOffset":13084,
			"target":34962
		},
		{
			"buffer":0,
			"byteLength":840,
			"byteOffset":14344,
			"target":34962
		},
		{
			"buffer":0,
			"byteLength":312,
			"byteOffset":15184,
			"target":34963
		},
		{
			"buffer":0,
			"byteLength":1116,
			"byteOffset":15496,
			"target":34962
		},
		{
			"buffer":0,
			"byteLength":1116,
			"byteOffset":16612,
			"target":34962
		},
		{
			"buffer":0,
			"byteLength":744,
			"byteOffset":17728,
			"target":34962
		},
		{
			"buffer":0,
			"byteLength":312,
			"byteOffset":18472,
			"target":34963
		},
		{
			"buffer":0,
			"byteLength":1260,
			"byteOffset":18784,
			"target":34962
		},
		{
			"buffer":0,
			"byteLength":1260,
			"byteOffset":20044,
			"target":34962
		},
		{
			"buffer":0,
			"byteLength":840,
			"byteOffset":21304,
			"target":34962
		},
		{
			"buffer":0,
			"byteLength":312,
			"byteOffset":22144,
			"target":34963
		},
		{
			"buffer":0,
			"byteLength":1260,
			"byteOffset":22456,
			"target":34962
		},
		{
			"buffer":0,
			"byteLength":1260,
			"byteOffset":23716,
			"target":34962
		},
		{
			"buffer":0,
			"byteLength":840,
			"byteOffset":24976,
			"target":34962
		},
		{
			"buffer":0,
			"byteLength":312,
			"byteOffset":25816,
			"target":34963
		},
		{
			"buffer":0,
			"byteLength":1452,
			"byteOffset":26128,
			"target":34962
		},
		{
			"buffer":0,
			"byteLength":1452,
			"byteOffset":27580,
			"target":34962
		},
		{
			"buffer":0,
			"byteLength":968,
			"byteOffset":29032,
			"target":34962
		},
		{
			"buffer":0,
			"byteLength":312,
			"byteOffset":30000,
			"target":34963
		}
	],
	"samplers":[
		{
			"magFilter":9729,
			"minFilter":9987
		}
	],
	"buffers":[
		{
			"byteLength":30312,
			"uri":"trees.bin"
		}
	]
}
