{
	"asset":{
		"generator":"Khronos glTF Blender I/O v4.1.63",
		"version":"2.0"
	},
	"scene":0,
	"scenes":[
		{
			"name":"Scene",
			"nodes":[
				0,
				1,
				2,
				3,
				4,
				5,
				6,
				7,
				8,
				9,
				10,
				11,
				12,
				13,
				14,
				15,
				16,
				17,
				18,
				19,
				20,
				21,
				22,
				23,
				24,
				25,
				26,
				27,
				28,
				29,
				30,
				31,
				32,
				33,
				34,
				35
			]
		}
	],
	"nodes":[
		{
			"mesh":0,
			"name":"building_01.002",
			"rotation":[
				0.7071068286895752,
				0,
				0,
				0.7071068286895752
			],
			"scale":[
				0.05000000074505806,
				0.05000000074505806,
				0.05000000074505806
			]
		},
		{
			"mesh":1,
			"name":"building_01.003",
			"rotation":[
				0.7071068286895752,
				0,
				0,
				0.7071068286895752
			],
			"scale":[
				0.05000000074505806,
				0.05000000074505806,
				0.05000000074505806
			]
		},
		{
			"mesh":2,
			"name":"building_01.005",
			"rotation":[
				0.7071068286895752,
				0,
				0,
				0.7071068286895752
			],
			"scale":[
				0.05000000074505806,
				0.05000000074505806,
				0.05000000074505806
			]
		},
		{
			"mesh":3,
			"name":"building_01.006",
			"rotation":[
				0.7071068286895752,
				0,
				0,
				0.7071068286895752
			],
			"scale":[
				0.05000000074505806,
				0.05000000074505806,
				0.05000000074505806
			]
		},
		{
			"mesh":4,
			"name":"building_01.007",
			"rotation":[
				0.7071068286895752,
				0,
				0,
				0.7071068286895752
			],
			"scale":[
				0.05000000074505806,
				0.05000000074505806,
				0.05000000074505806
			]
		},
		{
			"mesh":5,
			"name":"building_01.008",
			"rotation":[
				0.7071068286895752,
				0,
				0,
				0.7071068286895752
			],
			"scale":[
				0.05000000074505806,
				0.05000000074505806,
				0.05000000074505806
			]
		},
		{
			"mesh":6,
			"name":"building_01.009",
			"rotation":[
				0.7071068286895752,
				0,
				0,
				0.7071068286895752
			],
			"scale":[
				0.05000000074505806,
				0.05000000074505806,
				0.05000000074505806
			]
		},
		{
			"mesh":7,
			"name":"building_01.010",
			"rotation":[
				0.7071068286895752,
				0,
				0,
				0.7071068286895752
			],
			"scale":[
				0.05000000074505806,
				0.05000000074505806,
				0.05000000074505806
			]
		},
		{
			"mesh":8,
			"name":"building_01.1",
			"rotation":[
				0.7071068286895752,
				0,
				0,
				0.7071068286895752
			],
			"scale":[
				0.05000000074505806,
				0.05000000074505806,
				0.05000000074505806
			]
		},
		{
			"mesh":9,
			"name":"building_01.4",
			"rotation":[
				0.7071068286895752,
				0,
				0,
				0.7071068286895752
			],
			"scale":[
				0.05000000074505806,
				0.05000000074505806,
				0.05000000074505806
			]
		},
		{
			"mesh":10,
			"name":"building_02.001",
			"rotation":[
				0.7071068286895752,
				0,
				0,
				0.7071068286895752
			],
			"scale":[
				0.05000000074505806,
				0.05000000074505806,
				0.05000000074505806
			]
		},
		{
			"mesh":11,
			"name":"building_02.003",
			"rotation":[
				0.7071068286895752,
				0,
				0,
				0.7071068286895752
			],
			"scale":[
				0.05000000074505806,
				0.05000000074505806,
				0.05000000074505806
			]
		},
		{
			"mesh":12,
			"name":"building_02.2",
			"rotation":[
				0.7071068286895752,
				0,
				0,
				0.7071068286895752
			],
			"scale":[
				0.05000000074505806,
				0.05000000074505806,
				0.05000000074505806
			]
		},
		{
			"mesh":13,
			"name":"building_04.001",
			"rotation":[
				0.7071068286895752,
				0,
				0,
				0.7071068286895752
			],
			"scale":[
				0.05000000074505806,
				0.05000000074505806,
				0.05000000074505806
			]
		},
		{
			"mesh":14,
			"name":"building_04.003",
			"rotation":[
				0.7071068286895752,
				0,
				0,
				0.7071068286895752
			],
			"scale":[
				0.05000000074505806,
				0.05000000074505806,
				0.05000000074505806
			]
		},
		{
			"mesh":15,
			"name":"building_04.004",
			"rotation":[
				0.7071068286895752,
				0,
				0,
				0.7071068286895752
			],
			"scale":[
				0.05000000074505806,
				0.05000000074505806,
				0.05000000074505806
			]
		},
		{
			"mesh":16,
			"name":"building_04.2",
			"rotation":[
				0.7071068286895752,
				0,
				0,
				0.7071068286895752
			],
			"scale":[
				0.05000000074505806,
				0.05000000074505806,
				0.05000000074505806
			]
		},
		{
			"mesh":17,
			"name":"building_06.001",
			"rotation":[
				0.7071068286895752,
				0,
				0,
				0.7071068286895752
			],
			"scale":[
				0.05000000074505806,
				0.05000000074505806,
				0.05000000074505806
			]
		},
		{
			"mesh":18,
			"name":"building_06.003",
			"rotation":[
				0.7071068286895752,
				0,
				0,
				0.7071068286895752
			],
			"scale":[
				0.05000000074505806,
				0.05000000074505806,
				0.05000000074505806
			]
		},
		{
			"mesh":19,
			"name":"building_06.004",
			"rotation":[
				0.7071068286895752,
				0,
				0,
				0.7071068286895752
			],
			"scale":[
				0.05000000074505806,
				0.05000000074505806,
				0.05000000074505806
			]
		},
		{
			"mesh":20,
			"name":"building_06.2",
			"rotation":[
				0.7071068286895752,
				0,
				0,
				0.7071068286895752
			],
			"scale":[
				0.05000000074505806,
				0.05000000074505806,
				0.05000000074505806
			]
		},
		{
			"mesh":21,
			"name":"building_08.002",
			"rotation":[
				0.7071068286895752,
				0,
				0,
				0.7071068286895752
			],
			"scale":[
				0.05000000074505806,
				0.05000000074505806,
				0.05000000074505806
			]
		},
		{
			"mesh":22,
			"name":"building_08.003",
			"rotation":[
				0.7071068286895752,
				0,
				0,
				0.7071068286895752
			],
			"scale":[
				0.05000000074505806,
				0.05000000074505806,
				0.05000000074505806
			]
		},
		{
			"mesh":23,
			"name":"building_08.004",
			"rotation":[
				0.7071068286895752,
				0,
				0,
				0.7071068286895752
			],
			"scale":[
				0.05000000074505806,
				0.05000000074505806,
				0.05000000074505806
			]
		},
		{
			"mesh":24,
			"name":"building_08.1",
			"rotation":[
				0.7071068286895752,
				0,
				0,
				0.7071068286895752
			],
			"scale":[
				0.05000000074505806,
				0.05000000074505806,
				0.05000000074505806
			]
		},
		{
			"mesh":25,
			"name":"Plane",
			"rotation":[
				0.7071068286895752,
				0,
				0,
				0.7071068286895752
			],
			"scale":[
				0.05000000074505806,
				0.05000000074505806,
				0.05000000074505806
			]
		},
		{
			"mesh":26,
			"name":"tree01",
			"rotation":[
				0.7071068286895752,
				0,
				0,
				0.7071068286895752
			],
			"scale":[
				0.05000000074505806,
				0.05000000074505806,
				0.05000000074505806
			]
		},
		{
			"mesh":27,
			"name":"tree01.001",
			"rotation":[
				0.7071068286895752,
				0,
				0,
				0.7071068286895752
			],
			"scale":[
				0.05000000074505806,
				0.05000000074505806,
				0.05000000074505806
			]
		},
		{
			"mesh":28,
			"name":"tree03",
			"rotation":[
				0.7071068286895752,
				0,
				0,
				0.7071068286895752
			],
			"scale":[
				0.05000000074505806,
				0.05000000074505806,
				0.05000000074505806
			]
		},
		{
			"mesh":29,
			"name":"tree03.001",
			"rotation":[
				0.7071068286895752,
				0,
				0,
				0.7071068286895752
			],
			"scale":[
				0.05000000074505806,
				0.05000000074505806,
				0.05000000074505806
			]
		},
		{
			"mesh":30,
			"name":"tree05",
			"rotation":[
				0.7071068286895752,
				0,
				0,
				0.7071068286895752
			],
			"scale":[
				0.05000000074505806,
				0.05000000074505806,
				0.05000000074505806
			]
		},
		{
			"mesh":31,
			"name":"tree05.001",
			"rotation":[
				0.7071068286895752,
				0,
				0,
				0.7071068286895752
			],
			"scale":[
				0.05000000074505806,
				0.05000000074505806,
				0.05000000074505806
			]
		},
		{
			"mesh":32,
			"name":"tree12",
			"rotation":[
				0.7071068286895752,
				0,
				0,
				0.7071068286895752
			],
			"scale":[
				0.05000000074505806,
				0.05000000074505806,
				0.05000000074505806
			]
		},
		{
			"mesh":33,
			"name":"tree12.001",
			"rotation":[
				0.7071068286895752,
				0,
				0,
				0.7071068286895752
			],
			"scale":[
				0.05000000074505806,
				0.05000000074505806,
				0.05000000074505806
			]
		},
		{
			"mesh":34,
			"name":"tree14",
			"rotation":[
				0.7071068286895752,
				0,
				0,
				0.7071068286895752
			],
			"scale":[
				0.05000000074505806,
				0.05000000074505806,
				0.05000000074505806
			]
		},
		{
			"mesh":35,
			"name":"tree14.001",
			"rotation":[
				0.7071068286895752,
				0,
				0,
				0.7071068286895752
			],
			"scale":[
				0.05000000074505806,
				0.05000000074505806,
				0.05000000074505806
			]
		}
	],
	"materials":[
		{
			"doubleSided":true,
			"name":"building_01.009",
			"pbrMetallicRoughness":{
				"baseColorTexture":{
					"index":0
				},
				"metallicFactor":0,
				"roughnessFactor":0.3999999761581421
			}
		},
		{
			"doubleSided":true,
			"name":"building_01.010",
			"pbrMetallicRoughness":{
				"baseColorTexture":{
					"index":1
				},
				"metallicFactor":0,
				"roughnessFactor":0.3999999761581421
			}
		},
		{
			"doubleSided":true,
			"name":"building_01.011",
			"pbrMetallicRoughness":{
				"baseColorTexture":{
					"index":2
				},
				"metallicFactor":0,
				"roughnessFactor":0.3999999761581421
			}
		},
		{
			"doubleSided":true,
			"name":"building_01.012",
			"pbrMetallicRoughness":{
				"baseColorTexture":{
					"index":3
				},
				"metallicFactor":0,
				"roughnessFactor":0.3999999761581421
			}
		},
		{
			"doubleSided":true,
			"name":"building_01.013",
			"pbrMetallicRoughness":{
				"baseColorTexture":{
					"index":4
				},
				"metallicFactor":0,
				"roughnessFactor":0.3999999761581421
			}
		},
		{
			"doubleSided":true,
			"name":"building_01.014",
			"pbrMetallicRoughness":{
				"baseColorTexture":{
					"index":5
				},
				"metallicFactor":0,
				"roughnessFactor":0.3999999761581421
			}
		},
		{
			"doubleSided":true,
			"name":"building_01.015",
			"pbrMetallicRoughness":{
				"baseColorTexture":{
					"index":6
				},
				"metallicFactor":0,
				"roughnessFactor":0.3999999761581421
			}
		},
		{
			"doubleSided":true,
			"name":"building_01.016",
			"pbrMetallicRoughness":{
				"baseColorTexture":{
					"index":7
				},
				"metallicFactor":0,
				"roughnessFactor":0.3999999761581421
			}
		},
		{
			"doubleSided":true,
			"name":"building_01.007",
			"pbrMetallicRoughness":{
				"baseColorTexture":{
					"index":8
				},
				"metallicFactor":0,
				"roughnessFactor":0.3999999761581421
			}
		},
		{
			"doubleSided":true,
			"name":"building_01.008",
			"pbrMetallicRoughness":{
				"baseColorTexture":{
					"index":9
				},
				"metallicFactor":0,
				"roughnessFactor":0.3999999761581421
			}
		},
		{
			"doubleSided":true,
			"name":"building_02.003",
			"pbrMetallicRoughness":{
				"baseColorTexture":{
					"index":10
				},
				"metallicFactor":0,
				"roughnessFactor":0.3999999761581421
			}
		},
		{
			"doubleSided":true,
			"name":"building_02.004",
			"pbrMetallicRoughness":{
				"baseColorTexture":{
					"index":11
				},
				"metallicFactor":0,
				"roughnessFactor":0.3999999761581421
			}
		},
		{
			"doubleSided":true,
			"name":"building_02.002",
			"pbrMetallicRoughness":{
				"baseColorTexture":{
					"index":12
				},
				"metallicFactor":0,
				"roughnessFactor":0.3999999761581421
			}
		},
		{
			"doubleSided":true,
			"name":"building_04.003",
			"pbrMetallicRoughness":{
				"baseColorTexture":{
					"index":13
				},
				"metallicFactor":0,
				"roughnessFactor":0.3999999761581421
			}
		},
		{
			"doubleSided":true,
			"name":"building_04.004",
			"pbrMetallicRoughness":{
				"baseColorTexture":{
					"index":14
				},
				"metallicFactor":0,
				"roughnessFactor":0.3999999761581421
			}
		},
		{
			"doubleSided":true,
			"name":"building_04.005",
			"pbrMetallicRoughness":{
				"baseColorTexture":{
					"index":15
				},
				"metallicFactor":0,
				"roughnessFactor":0.3999999761581421
			}
		},
		{
			"doubleSided":true,
			"name":"building_04.002",
			"pbrMetallicRoughness":{
				"baseColorTexture":{
					"index":16
				},
				"metallicFactor":0,
				"roughnessFactor":0.3999999761581421
			}
		},
		{
			"doubleSided":true,
			"name":"building_06.003",
			"pbrMetallicRoughness":{
				"baseColorTexture":{
					"index":17
				},
				"metallicFactor":0,
				"roughnessFactor":0.3999999761581421
			}
		},
		{
			"doubleSided":true,
			"name":"building_06.004",
			"pbrMetallicRoughness":{
				"baseColorTexture":{
					"index":18
				},
				"metallicFactor":0,
				"roughnessFactor":0.3999999761581421
			}
		},
		{
			"doubleSided":true,
			"name":"building_06.005",
			"pbrMetallicRoughness":{
				"baseColorTexture":{
					"index":19
				},
				"metallicFactor":0,
				"roughnessFactor":0.3999999761581421
			}
		},
		{
			"doubleSided":true,
			"name":"building_06.002",
			"pbrMetallicRoughness":{
				"baseColorTexture":{
					"index":20
				},
				"metallicFactor":0,
				"roughnessFactor":0.3999999761581421
			}
		},
		{
			"doubleSided":true,
			"name":"building_08.003",
			"pbrMetallicRoughness":{
				"baseColorTexture":{
					"index":21
				},
				"metallicFactor":0,
				"roughnessFactor":0.3999999761581421
			}
		},
		{
			"doubleSided":true,
			"name":"building_08.004",
			"pbrMetallicRoughness":{
				"baseColorTexture":{
					"index":22
				},
				"metallicFactor":0,
				"roughnessFactor":0.3999999761581421
			}
		},
		{
			"doubleSided":true,
			"name":"building_08.005",
			"pbrMetallicRoughness":{
				"baseColorTexture":{
					"index":23
				},
				"metallicFactor":0,
				"roughnessFactor":0.3999999761581421
			}
		},
		{
			"doubleSided":true,
			"name":"building_08.002",
			"pbrMetallicRoughness":{
				"baseColorTexture":{
					"index":24
				},
				"metallicFactor":0,
				"roughnessFactor":0.3999999761581421
			}
		},
		{
			"doubleSided":true,
			"name":"Material.012",
			"pbrMetallicRoughness":{
				"baseColorTexture":{
					"index":25
				},
				"metallicFactor":0,
				"roughnessFactor":0.5
			}
		},
		{
			"doubleSided":true,
			"name":"tree01",
			"pbrMetallicRoughness":{
				"baseColorTexture":{
					"index":26
				},
				"metallicFactor":0,
				"roughnessFactor":0.3999999761581421
			}
		},
		{
			"doubleSided":true,
			"name":"tree01.001",
			"pbrMetallicRoughness":{
				"baseColorTexture":{
					"index":27
				},
				"metallicFactor":0,
				"roughnessFactor":0.3999999761581421
			}
		},
		{
			"doubleSided":true,
			"name":"tree03",
			"pbrMetallicRoughness":{
				"baseColorTexture":{
					"index":28
				},
				"metallicFactor":0,
				"roughnessFactor":0.3999999761581421
			}
		},
		{
			"doubleSided":true,
			"name":"tree03.001",
			"pbrMetallicRoughness":{
				"baseColorTexture":{
					"index":29
				},
				"metallicFactor":0,
				"roughnessFactor":0.3999999761581421
			}
		},
		{
			"doubleSided":true,
			"name":"tree05",
			"pbrMetallicRoughness":{
				"baseColorTexture":{
					"index":30
				},
				"metallicFactor":0,
				"roughnessFactor":0.3999999761581421
			}
		},
		{
			"doubleSided":true,
			"name":"tree05.001",
			"pbrMetallicRoughness":{
				"baseColorTexture":{
					"index":31
				},
				"metallicFactor":0,
				"roughnessFactor":0.3999999761581421
			}
		},
		{
			"doubleSided":true,
			"name":"tree12",
			"pbrMetallicRoughness":{
				"baseColorTexture":{
					"index":32
				},
				"metallicFactor":0,
				"roughnessFactor":0.3999999761581421
			}
		},
		{
			"doubleSided":true,
			"name":"tree12.001",
			"pbrMetallicRoughness":{
				"baseColorTexture":{
					"index":33
				},
				"metallicFactor":0,
				"roughnessFactor":0.3999999761581421
			}
		},
		{
			"doubleSided":true,
			"name":"tree14",
			"pbrMetallicRoughness":{
				"baseColorTexture":{
					"index":34
				},
				"metallicFactor":0,
				"roughnessFactor":0.3999999761581421
			}
		},
		{
			"doubleSided":true,
			"name":"tree14.001",
			"pbrMetallicRoughness":{
				"baseColorTexture":{
					"index":35
				},
				"metallicFactor":0,
				"roughnessFactor":0.3999999761581421
			}
		}
	],
	"meshes":[
		{
			"name":"building_01.002",
			"primitives":[
				{
					"attributes":{
						"POSITION":0,
						"NORMAL":1,
						"TEXCOORD_0":2,
						"TANGENT":3
					},
					"indices":4,
					"material":0
				}
			]
		},
		{
			"name":"building_01.003",
			"primitives":[
				{
					"attributes":{
						"POSITION":5,
						"NORMAL":6,
						"TEXCOORD_0":7,
						"TANGENT":8
					},
					"indices":4,
					"material":1
				}
			]
		},
		{
			"name":"building_01.005",
			"primitives":[
				{
					"attributes":{
						"POSITION":9,
						"NORMAL":10,
						"TEXCOORD_0":11,
						"TANGENT":12
					},
					"indices":4,
					"material":2
				}
			]
		},
		{
			"name":"building_01.006",
			"primitives":[
				{
					"attributes":{
						"POSITION":13,
						"NORMAL":14,
						"TEXCOORD_0":15,
						"TANGENT":16
					},
					"indices":4,
					"material":3
				}
			]
		},
		{
			"name":"building_01.007",
			"primitives":[
				{
					"attributes":{
						"POSITION":17,
						"NORMAL":18,
						"TEXCOORD_0":19,
						"TANGENT":20
					},
					"indices":4,
					"material":4
				}
			]
		},
		{
			"name":"building_01.008",
			"primitives":[
				{
					"attributes":{
						"POSITION":21,
						"NORMAL":22,
						"TEXCOORD_0":23,
						"TANGENT":24
					},
					"indices":4,
					"material":5
				}
			]
		},
		{
			"name":"building_01.009",
			"primitives":[
				{
					"attributes":{
						"POSITION":25,
						"NORMAL":26,
						"TEXCOORD_0":27,
						"TANGENT":28
					},
					"indices":4,
					"material":6
				}
			]
		},
		{
			"name":"building_01.010",
			"primitives":[
				{
					"attributes":{
						"POSITION":29,
						"NORMAL":30,
						"TEXCOORD_0":31,
						"TANGENT":32
					},
					"indices":4,
					"material":7
				}
			]
		},
		{
			"name":"building_01.1",
			"primitives":[
				{
					"attributes":{
						"POSITION":33,
						"NORMAL":34,
						"TEXCOORD_0":35,
						"TANGENT":36
					},
					"indices":4,
					"material":8
				}
			]
		},
		{
			"name":"building_01.4",
			"primitives":[
				{
					"attributes":{
						"POSITION":37,
						"NORMAL":38,
						"TEXCOORD_0":39,
						"TANGENT":40
					},
					"indices":4,
					"material":9
				}
			]
		},
		{
			"name":"building_02.001",
			"primitives":[
				{
					"attributes":{
						"POSITION":41,
						"NORMAL":42,
						"TEXCOORD_0":43,
						"TANGENT":44
					},
					"indices":4,
					"material":10
				}
			]
		},
		{
			"name":"building_02.003",
			"primitives":[
				{
					"attributes":{
						"POSITION":45,
						"NORMAL":46,
						"TEXCOORD_0":47,
						"TANGENT":48
					},
					"indices":4,
					"material":11
				}
			]
		},
		{
			"name":"building_02.2",
			"primitives":[
				{
					"attributes":{
						"POSITION":49,
						"NORMAL":50,
						"TEXCOORD_0":51,
						"TANGENT":52
					},
					"indices":4,
					"material":12
				}
			]
		},
		{
			"name":"building_04.001",
			"primitives":[
				{
					"attributes":{
						"POSITION":53,
						"NORMAL":54,
						"TEXCOORD_0":55,
						"TANGENT":56
					},
					"indices":4,
					"material":13
				}
			]
		},
		{
			"name":"building_04.003",
			"primitives":[
				{
					"attributes":{
						"POSITION":57,
						"NORMAL":58,
						"TEXCOORD_0":59,
						"TANGENT":60
					},
					"indices":4,
					"material":14
				}
			]
		},
		{
			"name":"building_04.004",
			"primitives":[
				{
					"attributes":{
						"POSITION":61,
						"NORMAL":62,
						"TEXCOORD_0":63,
						"TANGENT":64
					},
					"indices":4,
					"material":15
				}
			]
		},
		{
			"name":"building_04.2",
			"primitives":[
				{
					"attributes":{
						"POSITION":65,
						"NORMAL":66,
						"TEXCOORD_0":67,
						"TANGENT":68
					},
					"indices":4,
					"material":16
				}
			]
		},
		{
			"name":"building_06.001",
			"primitives":[
				{
					"attributes":{
						"POSITION":69,
						"NORMAL":70,
						"TEXCOORD_0":71,
						"TANGENT":72
					},
					"indices":4,
					"material":17
				}
			]
		},
		{
			"name":"building_06.003",
			"primitives":[
				{
					"attributes":{
						"POSITION":73,
						"NORMAL":74,
						"TEXCOORD_0":75,
						"TANGENT":76
					},
					"indices":4,
					"material":18
				}
			]
		},
		{
			"name":"building_06.004",
			"primitives":[
				{
					"attributes":{
						"POSITION":77,
						"NORMAL":78,
						"TEXCOORD_0":79,
						"TANGENT":80
					},
					"indices":4,
					"material":19
				}
			]
		},
		{
			"name":"building_06.2",
			"primitives":[
				{
					"attributes":{
						"POSITION":81,
						"NORMAL":82,
						"TEXCOORD_0":83,
						"TANGENT":84
					},
					"indices":4,
					"material":20
				}
			]
		},
		{
			"name":"building_08.002",
			"primitives":[
				{
					"attributes":{
						"POSITION":85,
						"NORMAL":86,
						"TEXCOORD_0":87,
						"TANGENT":88
					},
					"indices":89,
					"material":21
				}
			]
		},
		{
			"name":"building_08.003",
			"primitives":[
				{
					"attributes":{
						"POSITION":90,
						"NORMAL":91,
						"TEXCOORD_0":92,
						"TANGENT":93
					},
					"indices":89,
					"material":22
				}
			]
		},
		{
			"name":"building_08.004",
			"primitives":[
				{
					"attributes":{
						"POSITION":94,
						"NORMAL":95,
						"TEXCOORD_0":96,
						"TANGENT":97
					},
					"indices":89,
					"material":23
				}
			]
		},
		{
			"name":"building_08.1",
			"primitives":[
				{
					"attributes":{
						"POSITION":98,
						"NORMAL":99,
						"TEXCOORD_0":100,
						"TANGENT":101
					},
					"indices":89,
					"material":24
				}
			]
		},
		{
			"name":"Plane",
			"primitives":[
				{
					"attributes":{
						"POSITION":102,
						"NORMAL":103,
						"TEXCOORD_0":104,
						"TANGENT":105
					},
					"indices":106,
					"material":25
				}
			]
		},
		{
			"name":"tree01",
			"primitives":[
				{
					"attributes":{
						"POSITION":107,
						"NORMAL":108,
						"TEXCOORD_0":109,
						"TANGENT":110
					},
					"indices":111,
					"material":26
				}
			]
		},
		{
			"name":"tree01.001",
			"primitives":[
				{
					"attributes":{
						"POSITION":112,
						"NORMAL":113,
						"TEXCOORD_0":114,
						"TANGENT":115
					},
					"indices":116,
					"material":27
				}
			]
		},
		{
			"name":"tree03",
			"primitives":[
				{
					"attributes":{
						"POSITION":117,
						"NORMAL":118,
						"TEXCOORD_0":119,
						"TANGENT":120
					},
					"indices":121,
					"material":28
				}
			]
		},
		{
			"name":"tree03.001",
			"primitives":[
				{
					"attributes":{
						"POSITION":122,
						"NORMAL":123,
						"TEXCOORD_0":124,
						"TANGENT":125
					},
					"indices":116,
					"material":29
				}
			]
		},
		{
			"name":"tree05",
			"primitives":[
				{
					"attributes":{
						"POSITION":126,
						"NORMAL":127,
						"TEXCOORD_0":128,
						"TANGENT":129
					},
					"indices":130,
					"material":30
				}
			]
		},
		{
			"name":"tree05.001",
			"primitives":[
				{
					"attributes":{
						"POSITION":131,
						"NORMAL":132,
						"TEXCOORD_0":133,
						"TANGENT":134
					},
					"indices":135,
					"material":31
				}
			]
		},
		{
			"name":"tree12",
			"primitives":[
				{
					"attributes":{
						"POSITION":136,
						"NORMAL":137,
						"TEXCOORD_0":138,
						"TANGENT":139
					},
					"indices":140,
					"material":32
				}
			]
		},
		{
			"name":"tree12.001",
			"primitives":[
				{
					"attributes":{
						"POSITION":141,
						"NORMAL":142,
						"TEXCOORD_0":143,
						"TANGENT":144
					},
					"indices":145,
					"material":33
				}
			]
		},
		{
			"name":"tree14",
			"primitives":[
				{
					"attributes":{
						"POSITION":146,
						"NORMAL":147,
						"TEXCOORD_0":148,
						"TANGENT":149
					},
					"indices":150,
					"material":34
				}
			]
		},
		{
			"name":"tree14.001",
			"primitives":[
				{
					"attributes":{
						"POSITION":151,
						"NORMAL":152,
						"TEXCOORD_0":153,
						"TANGENT":154
					},
					"indices":155,
					"material":35
				}
			]
		}
	],
	"textures":[
		{
			"sampler":0,
			"source":0
		},
		{
			"sampler":0,
			"source":1
		},
		{
			"sampler":0,
			"source":1
		},
		{
			"sampler":0,
			"source":1
		},
		{
			"sampler":0,
			"source":1
		},
		{
			"sampler":0,
			"source":0
		},
		{
			"sampler":0,
			"source":1
		},
		{
			"sampler":0,
			"source":1
		},
		{
			"sampler":0,
			"source":1
		},
		{
			"sampler":0,
			"source":0
		},
		{
			"sampler":0,
			"source":2
		},
		{
			"sampler":0,
			"source":2
		},
		{
			"sampler":0,
			"source":2
		},
		{
			"sampler":0,
			"source":3
		},
		{
			"sampler":0,
			"source":3
		},
		{
			"sampler":0,
			"source":3
		},
		{
			"sampler":0,
			"source":3
		},
		{
			"sampler":0,
			"source":4
		},
		{
			"sampler":0,
			"source":4
		},
		{
			"sampler":0,
			"source":4
		},
		{
			"sampler":0,
			"source":4
		},
		{
			"sampler":0,
			"source":5
		},
		{
			"sampler":0,
			"source":5
		},
		{
			"sampler":0,
			"source":5
		},
		{
			"sampler":0,
			"source":5
		},
		{
			"sampler":0,
			"source":6
		},
		{
			"sampler":0,
			"source":7
		},
		{
			"sampler":0,
			"source":7
		},
		{
			"sampler":0,
			"source":8
		},
		{
			"sampler":0,
			"source":8
		},
		{
			"sampler":0,
			"source":9
		},
		{
			"sampler":0,
			"source":9
		},
		{
			"sampler":0,
			"source":8
		},
		{
			"sampler":0,
			"source":8
		},
		{
			"sampler":0,
			"source":10
		},
		{
			"sampler":0,
			"source":10
		}
	],
	"images":[
		{
			"mimeType":"image/png",
			"name":"building_02",
			"uri":"building_02.png"
		},
		{
			"mimeType":"image/png",
			"name":"building_01",
			"uri":"building_01.png"
		},
		{
			"mimeType":"image/png",
			"name":"building_03",
			"uri":"building_03.png"
		},
		{
			"mimeType":"image/png",
			"name":"building_07",
			"uri":"building_07.png"
		},
		{
			"mimeType":"image/png",
			"name":"building_04",
			"uri":"building_04.png"
		},
		{
			"mimeType":"image/png",
			"name":"building_08",
			"uri":"building_08.png"
		},
		{
			"mimeType":"image/jpeg",
			"name":"asphalt-1",
			"uri":"asphalt-1.jpg"
		},
		{
			"mimeType":"image/png",
			"name":"tree17",
			"uri":"tree17.png"
		},
		{
			"mimeType":"image/png",
			"name":"tree01",
			"uri":"tree01.png"
		},
		{
			"mimeType":"image/png",
			"name":"tree13",
			"uri":"tree13.png"
		},
		{
			"mimeType":"image/png",
			"name":"tree14",
			"uri":"tree14.png"
		}
	],
	"accessors":[
		{
			"bufferView":0,
			"componentType":5126,
			"count":64,
			"max":[
				-21.244617462158203,
				107.79791259765625,
				1.2955889701843262
			],
			"min":[
				-70.24461364746094,
				58.79791259765625,
				-35.70440673828125
			],
			"type":"VEC3"
		},
		{
			"bufferView":1,
			"componentType":5126,
			"count":64,
			"type":"VEC3"
		},
		{
			"bufferView":2,
			"componentType":5126,
			"count":64,
			"type":"VEC2"
		},
		{
			"bufferView":3,
			"componentType":5126,
			"count":64,
			"type":"VEC4"
		},
		{
			"bufferView":4,
			"componentType":5123,
			"count":96,
			"type":"SCALAR"
		},
		{
			"bufferView":5,
			"componentType":5126,
			"count":64,
			"max":[
				62.860450744628906,
				76.11270904541016,
				1.2955880165100098
			],
			"min":[
				37.860450744628906,
				51.112701416015625,
				-71.70441436767578
			],
			"type":"VEC3"
		},
		{
			"bufferView":6,
			"componentType":5126,
			"count":64,
			"type":"VEC3"
		},
		{
			"bufferView":7,
			"componentType":5126,
			"count":64,
			"type":"VEC2"
		},
		{
			"bufferView":8,
			"componentType":5126,
			"count":64,
			"type":"VEC4"
		},
		{
			"bufferView":9,
			"componentType":5126,
			"count":64,
			"max":[
				125.21337127685547,
				54.68555450439453,
				1.2955880165100098
			],
			"min":[
				100.21337127685547,
				29.685548782348633,
				-71.70441436767578
			],
			"type":"VEC3"
		},
		{
			"bufferView":10,
			"componentType":5126,
			"count":64,
			"type":"VEC3"
		},
		{
			"bufferView":11,
			"componentType":5126,
			"count":64,
			"type":"VEC2"
		},
		{
			"bufferView":12,
			"componentType":5126,
			"count":64,
			"type":"VEC4"
		},
		{
			"bufferView":13,
			"componentType":5126,
			"count":64,
			"max":[
				43.917449951171875,
				105.92727661132812,
				1.2955880165100098
			],
			"min":[
				18.917448043823242,
				80.9272689819336,
				-71.70441436767578
			],
			"type":"VEC3"
		},
		{
			"bufferView":14,
			"componentType":5126,
			"count":64,
			"type":"VEC3"
		},
		{
			"bufferView":15,
			"componentType":5126,
			"count":64,
			"type":"VEC2"
		},
		{
			"bufferView":16,
			"componentType":5126,
			"count":64,
			"type":"VEC4"
		},
		{
			"bufferView":17,
			"componentType":5126,
			"count":64,
			"max":[
				147.1997528076172,
				-56.330543518066406,
				1.2955880165100098
			],
			"min":[
				122.19975280761719,
				-81.33055114746094,
				-71.70441436767578
			],
			"type":"VEC3"
		},
		{
			"bufferView":18,
			"componentType":5126,
			"count":64,
			"type":"VEC3"
		},
		{
			"bufferView":19,
			"componentType":5126,
			"count":64,
			"type":"VEC2"
		},
		{
			"bufferView":20,
			"componentType":5126,
			"count":64,
			"type":"VEC4"
		},
		{
			"bufferView":21,
			"componentType":5126,
			"count":64,
			"max":[
				116.99703979492188,
				110.718505859375,
				1.2955889701843262
			],
			"min":[
				67.99703979492188,
				61.71851348876953,
				-35.70440673828125
			],
			"type":"VEC3"
		},
		{
			"bufferView":22,
			"componentType":5126,
			"count":64,
			"type":"VEC3"
		},
		{
			"bufferView":23,
			"componentType":5126,
			"count":64,
			"type":"VEC2"
		},
		{
			"bufferView":24,
			"componentType":5126,
			"count":64,
			"type":"VEC4"
		},
		{
			"bufferView":25,
			"componentType":5126,
			"count":64,
			"max":[
				-16.85352325439453,
				-97.72608184814453,
				1.2955880165100098
			],
			"min":[
				-41.85352325439453,
				-122.72608947753906,
				-71.70441436767578
			],
			"type":"VEC3"
		},
		{
			"bufferView":26,
			"componentType":5126,
			"count":64,
			"type":"VEC3"
		},
		{
			"bufferView":27,
			"componentType":5126,
			"count":64,
			"type":"VEC2"
		},
		{
			"bufferView":28,
			"componentType":5126,
			"count":64,
			"type":"VEC4"
		},
		{
			"bufferView":29,
			"componentType":5126,
			"count":64,
			"max":[
				94.68881225585938,
				33.79518508911133,
				1.2955859899520874
			],
			"min":[
				69.68881225585938,
				8.79517936706543,
				-71.70442199707031
			],
			"type":"VEC3"
		},
		{
			"bufferView":30,
			"componentType":5126,
			"count":64,
			"type":"VEC3"
		},
		{
			"bufferView":31,
			"componentType":5126,
			"count":64,
			"type":"VEC2"
		},
		{
			"bufferView":32,
			"componentType":5126,
			"count":64,
			"type":"VEC4"
		},
		{
			"bufferView":33,
			"componentType":5126,
			"count":64,
			"max":[
				62.860450744628906,
				76.11270904541016,
				1.2955880165100098
			],
			"min":[
				37.860450744628906,
				51.112701416015625,
				-71.70441436767578
			],
			"type":"VEC3"
		},
		{
			"bufferView":34,
			"componentType":5126,
			"count":64,
			"type":"VEC3"
		},
		{
			"bufferView":35,
			"componentType":5126,
			"count":64,
			"type":"VEC2"
		},
		{
			"bufferView":36,
			"componentType":5126,
			"count":64,
			"type":"VEC4"
		},
		{
			"bufferView":37,
			"componentType":5126,
			"count":64,
			"max":[
				-21.244617462158203,
				107.79791259765625,
				1.2955889701843262
			],
			"min":[
				-70.24461364746094,
				58.79791259765625,
				-35.70440673828125
			],
			"type":"VEC3"
		},
		{
			"bufferView":38,
			"componentType":5126,
			"count":64,
			"type":"VEC3"
		},
		{
			"bufferView":39,
			"componentType":5126,
			"count":64,
			"type":"VEC2"
		},
		{
			"bufferView":40,
			"componentType":5126,
			"count":64,
			"type":"VEC4"
		},
		{
			"bufferView":41,
			"componentType":5126,
			"count":64,
			"max":[
				-54.914161682128906,
				47.246185302734375,
				1.2955880165100098
			],
			"min":[
				-87.9141616821289,
				14.246180534362793,
				-47.70439910888672
			],
			"type":"VEC3"
		},
		{
			"bufferView":42,
			"componentType":5126,
			"count":64,
			"type":"VEC3"
		},
		{
			"bufferView":43,
			"componentType":5126,
			"count":64,
			"type":"VEC2"
		},
		{
			"bufferView":44,
			"componentType":5126,
			"count":64,
			"type":"VEC4"
		},
		{
			"bufferView":45,
			"componentType":5126,
			"count":64,
			"max":[
				-81.5513687133789,
				78.95841979980469,
				1.2955880165100098
			],
			"min":[
				-114.5513687133789,
				45.95841979980469,
				-47.70439910888672
			],
			"type":"VEC3"
		},
		{
			"bufferView":46,
			"componentType":5126,
			"count":64,
			"type":"VEC3"
		},
		{
			"bufferView":47,
			"componentType":5126,
			"count":64,
			"type":"VEC2"
		},
		{
			"bufferView":48,
			"componentType":5126,
			"count":64,
			"type":"VEC4"
		},
		{
			"bufferView":49,
			"componentType":5126,
			"count":64,
			"max":[
				-54.914161682128906,
				47.246185302734375,
				1.2955880165100098
			],
			"min":[
				-87.9141616821289,
				14.246180534362793,
				-47.70439910888672
			],
			"type":"VEC3"
		},
		{
			"bufferView":50,
			"componentType":5126,
			"count":64,
			"type":"VEC3"
		},
		{
			"bufferView":51,
			"componentType":5126,
			"count":64,
			"type":"VEC2"
		},
		{
			"bufferView":52,
			"componentType":5126,
			"count":64,
			"type":"VEC4"
		},
		{
			"bufferView":53,
			"componentType":5126,
			"count":64,
			"max":[
				70.92237854003906,
				-41.599609375,
				1.2955880165100098
			],
			"min":[
				37.92238235473633,
				-74.599609375,
				-61.70440673828125
			],
			"type":"VEC3"
		},
		{
			"bufferView":54,
			"componentType":5126,
			"count":64,
			"type":"VEC3"
		},
		{
			"bufferView":55,
			"componentType":5126,
			"count":64,
			"type":"VEC2"
		},
		{
			"bufferView":56,
			"componentType":5126,
			"count":64,
			"type":"VEC4"
		},
		{
			"bufferView":57,
			"componentType":5126,
			"count":64,
			"max":[
				15.945487976074219,
				-124.74461364746094,
				1.2955880165100098
			],
			"min":[
				-17.05451202392578,
				-157.74461364746094,
				-61.70440673828125
			],
			"type":"VEC3"
		},
		{
			"bufferView":58,
			"componentType":5126,
			"count":64,
			"type":"VEC3"
		},
		{
			"bufferView":59,
			"componentType":5126,
			"count":64,
			"type":"VEC2"
		},
		{
			"bufferView":60,
			"componentType":5126,
			"count":64,
			"type":"VEC4"
		},
		{
			"bufferView":61,
			"componentType":5126,
			"count":64,
			"max":[
				48.07207107543945,
				-87.75035858154297,
				1.2955880165100098
			],
			"min":[
				15.072071075439453,
				-120.7503662109375,
				-61.70440673828125
			],
			"type":"VEC3"
		},
		{
			"bufferView":62,
			"componentType":5126,
			"count":64,
			"type":"VEC3"
		},
		{
			"bufferView":63,
			"componentType":5126,
			"count":64,
			"type":"VEC2"
		},
		{
			"bufferView":64,
			"componentType":5126,
			"count":64,
			"type":"VEC4"
		},
		{
			"bufferView":65,
			"componentType":5126,
			"count":64,
			"max":[
				70.92237854003906,
				-41.599609375,
				1.2955880165100098
			],
			"min":[
				37.92238235473633,
				-74.599609375,
				-61.70440673828125
			],
			"type":"VEC3"
		},
		{
			"bufferView":66,
			"componentType":5126,
			"count":64,
			"type":"VEC3"
		},
		{
			"bufferView":67,
			"componentType":5126,
			"count":64,
			"type":"VEC2"
		},
		{
			"bufferView":68,
			"componentType":5126,
			"count":64,
			"type":"VEC4"
		},
		{
			"bufferView":69,
			"componentType":5126,
			"count":64,
			"max":[
				-58.902366638183594,
				-4.890647888183594,
				1.2955889701843262
			],
			"min":[
				-91.9023666381836,
				-37.89065170288086,
				-59.70440673828125
			],
			"type":"VEC3"
		},
		{
			"bufferView":70,
			"componentType":5126,
			"count":64,
			"type":"VEC3"
		},
		{
			"bufferView":71,
			"componentType":5126,
			"count":64,
			"type":"VEC2"
		},
		{
			"bufferView":72,
			"componentType":5126,
			"count":64,
			"type":"VEC4"
		},
		{
			"bufferView":73,
			"componentType":5126,
			"count":64,
			"max":[
				-102.14024353027344,
				23.785375595092773,
				1.2955889701843262
			],
			"min":[
				-135.14024353027344,
				-9.214628219604492,
				-59.70440673828125
			],
			"type":"VEC3"
		},
		{
			"bufferView":74,
			"componentType":5126,
			"count":64,
			"type":"VEC3"
		},
		{
			"bufferView":75,
			"componentType":5126,
			"count":64,
			"type":"VEC2"
		},
		{
			"bufferView":76,
			"componentType":5126,
			"count":64,
			"type":"VEC4"
		},
		{
			"bufferView":77,
			"componentType":5126,
			"count":64,
			"max":[
				18.980262756347656,
				75.91259002685547,
				1.2955889701843262
			],
			"min":[
				-14.019737243652344,
				42.9125862121582,
				-59.70440673828125
			],
			"type":"VEC3"
		},
		{
			"bufferView":78,
			"componentType":5126,
			"count":64,
			"type":"VEC3"
		},
		{
			"bufferView":79,
			"componentType":5126,
			"count":64,
			"type":"VEC2"
		},
		{
			"bufferView":80,
			"componentType":5126,
			"count":64,
			"type":"VEC4"
		},
		{
			"bufferView":81,
			"componentType":5126,
			"count":64,
			"max":[
				-58.902366638183594,
				-4.890647888183594,
				1.2955889701843262
			],
			"min":[
				-91.9023666381836,
				-37.89065170288086,
				-59.70440673828125
			],
			"type":"VEC3"
		},
		{
			"bufferView":82,
			"componentType":5126,
			"count":64,
			"type":"VEC3"
		},
		{
			"bufferView":83,
			"componentType":5126,
			"count":64,
			"type":"VEC2"
		},
		{
			"bufferView":84,
			"componentType":5126,
			"count":64,
			"type":"VEC4"
		},
		{
			"bufferView":85,
			"componentType":5126,
			"count":80,
			"max":[
				-46.289764404296875,
				-69.62779235839844,
				1.2955900430679321
			],
			"min":[
				-111.28976440429688,
				-134.62779235839844,
				-71.70440673828125
			],
			"type":"VEC3"
		},
		{
			"bufferView":86,
			"componentType":5126,
			"count":80,
			"type":"VEC3"
		},
		{
			"bufferView":87,
			"componentType":5126,
			"count":80,
			"type":"VEC2"
		},
		{
			"bufferView":88,
			"componentType":5126,
			"count":80,
			"type":"VEC4"
		},
		{
			"bufferView":89,
			"componentType":5123,
			"count":120,
			"type":"SCALAR"
		},
		{
			"bufferView":90,
			"componentType":5126,
			"count":80,
			"max":[
				163.05526733398438,
				14.400854110717773,
				1.2955900430679321
			],
			"min":[
				98.05526733398438,
				-50.599151611328125,
				-71.70440673828125
			],
			"type":"VEC3"
		},
		{
			"bufferView":91,
			"componentType":5126,
			"count":80,
			"type":"VEC3"
		},
		{
			"bufferView":92,
			"componentType":5126,
			"count":80,
			"type":"VEC2"
		},
		{
			"bufferView":93,
			"componentType":5126,
			"count":80,
			"type":"VEC4"
		},
		{
			"bufferView":94,
			"componentType":5126,
			"count":80,
			"max":[
				124.11395263671875,
				-75.16417694091797,
				1.2955900430679321
			],
			"min":[
				59.11395263671875,
				-140.1641845703125,
				-71.70440673828125
			],
			"type":"VEC3"
		},
		{
			"bufferView":95,
			"componentType":5126,
			"count":80,
			"type":"VEC3"
		},
		{
			"bufferView":96,
			"componentType":5126,
			"count":80,
			"type":"VEC2"
		},
		{
			"bufferView":97,
			"componentType":5126,
			"count":80,
			"type":"VEC4"
		},
		{
			"bufferView":98,
			"componentType":5126,
			"count":80,
			"max":[
				-46.289764404296875,
				-69.62779235839844,
				1.2955900430679321
			],
			"min":[
				-111.28976440429688,
				-134.62779235839844,
				-71.70440673828125
			],
			"type":"VEC3"
		},
		{
			"bufferView":99,
			"componentType":5126,
			"count":80,
			"type":"VEC3"
		},
		{
			"bufferView":100,
			"componentType":5126,
			"count":80,
			"type":"VEC2"
		},
		{
			"bufferView":101,
			"componentType":5126,
			"count":80,
			"type":"VEC4"
		},
		{
			"bufferView":102,
			"componentType":5126,
			"count":4,
			"max":[
				128,
				128,
				0
			],
			"min":[
				-128,
				-128,
				0
			],
			"type":"VEC3"
		},
		{
			"bufferView":103,
			"componentType":5126,
			"count":4,
			"type":"VEC3"
		},
		{
			"bufferView":104,
			"componentType":5126,
			"count":4,
			"type":"VEC2"
		},
		{
			"bufferView":105,
			"componentType":5126,
			"count":4,
			"type":"VEC4"
		},
		{
			"bufferView":106,
			"componentType":5123,
			"count":6,
			"type":"SCALAR"
		},
		{
			"bufferView":107,
			"componentType":5126,
			"count":105,
			"max":[
				-33.07624816894531,
				-1.3430709838867188,
				0
			],
			"min":[
				-39.07624816894531,
				-7.343074798583984,
				-12.500000953674316
			],
			"type":"VEC3"
		},
		{
			"bufferView":108,
			"componentType":5126,
			"count":105,
			"type":"VEC3"
		},
		{
			"bufferView":109,
			"componentType":5126,
			"count":105,
			"type":"VEC2"
		},
		{
			"bufferView":110,
			"componentType":5126,
			"count":105,
			"type":"VEC4"
		},
		{
			"bufferView":111,
			"componentType":5123,
			"count":156,
			"type":"SCALAR"
		},
		{
			"bufferView":112,
			"componentType":5126,
			"count":105,
			"max":[
				-10.136113166809082,
				-38.8528938293457,
				0
			],
			"min":[
				-16.07215118408203,
				-44.78893280029297,
				-12.500000953674316
			],
			"type":"VEC3"
		},
		{
			"bufferView":113,
			"componentType":5126,
			"count":105,
			"type":"VEC3"
		},
		{
			"bufferView":114,
			"componentType":5126,
			"count":105,
			"type":"VEC2"
		},
		{
			"bufferView":115,
			"componentType":5126,
			"count":105,
			"type":"VEC4"
		},
		{
			"bufferView":116,
			"componentType":5123,
			"count":156,
			"type":"SCALAR"
		},
		{
			"bufferView":117,
			"componentType":5126,
			"count":105,
			"max":[
				-37.81931686401367,
				8.489702224731445,
				0
			],
			"min":[
				-43.81931686401367,
				2.489698886871338,
				-12.500000953674316
			],
			"type":"VEC3"
		},
		{
			"bufferView":118,
			"componentType":5126,
			"count":105,
			"type":"VEC3"
		},
		{
			"bufferView":119,
			"componentType":5126,
			"count":105,
			"type":"VEC2"
		},
		{
			"bufferView":120,
			"componentType":5126,
			"count":105,
			"type":"VEC4"
		},
		{
			"bufferView":121,
			"componentType":5123,
			"count":156,
			"type":"SCALAR"
		},
		{
			"bufferView":122,
			"componentType":5126,
			"count":105,
			"max":[
				-20.863914489746094,
				-36.82941818237305,
				0
			],
			"min":[
				-26.79995346069336,
				-42.76545715332031,
				-12.500000953674316
			],
			"type":"VEC3"
		},
		{
			"bufferView":123,
			"componentType":5126,
			"count":105,
			"type":"VEC3"
		},
		{
			"bufferView":124,
			"componentType":5126,
			"count":105,
			"type":"VEC2"
		},
		{
			"bufferView":125,
			"componentType":5126,
			"count":105,
			"type":"VEC4"
		},
		{
			"bufferView":126,
			"componentType":5126,
			"count":105,
			"max":[
				-31.626670837402344,
				16.15201187133789,
				0
			],
			"min":[
				-37.626670837402344,
				10.152009010314941,
				-12.500000953674316
			],
			"type":"VEC3"
		},
		{
			"bufferView":127,
			"componentType":5126,
			"count":105,
			"type":"VEC3"
		},
		{
			"bufferView":128,
			"componentType":5126,
			"count":105,
			"type":"VEC2"
		},
		{
			"bufferView":129,
			"componentType":5126,
			"count":105,
			"type":"VEC4"
		},
		{
			"bufferView":130,
			"componentType":5123,
			"count":156,
			"type":"SCALAR"
		},
		{
			"bufferView":131,
			"componentType":5126,
			"count":105,
			"max":[
				-23.35092544555664,
				-27.29659652709961,
				0
			],
			"min":[
				-29.286962509155273,
				-33.232635498046875,
				-12.500000953674316
			],
			"type":"VEC3"
		},
		{
			"bufferView":132,
			"componentType":5126,
			"count":105,
			"type":"VEC3"
		},
		{
			"bufferView":133,
			"componentType":5126,
			"count":105,
			"type":"VEC2"
		},
		{
			"bufferView":134,
			"componentType":5126,
			"count":105,
			"type":"VEC4"
		},
		{
			"bufferView":135,
			"componentType":5123,
			"count":156,
			"type":"SCALAR"
		},
		{
			"bufferView":136,
			"componentType":5126,
			"count":105,
			"max":[
				-35.3510856628418,
				-10.892139434814453,
				0
			],
			"min":[
				-41.3510856628418,
				-16.89214324951172,
				-12.500000953674316
			],
			"type":"VEC3"
		},
		{
			"bufferView":137,
			"componentType":5126,
			"count":105,
			"type":"VEC3"
		},
		{
			"bufferView":138,
			"componentType":5126,
			"count":105,
			"type":"VEC2"
		},
		{
			"bufferView":139,
			"componentType":5126,
			"count":105,
			"type":"VEC4"
		},
		{
			"bufferView":140,
			"componentType":5123,
			"count":156,
			"type":"SCALAR"
		},
		{
			"bufferView":141,
			"componentType":5126,
			"count":105,
			"max":[
				-3.8043859004974365,
				-46.354148864746094,
				0
			],
			"min":[
				-9.740423202514648,
				-52.290184020996094,
				-12.500000953674316
			],
			"type":"VEC3"
		},
		{
			"bufferView":142,
			"componentType":5126,
			"count":105,
			"type":"VEC3"
		},
		{
			"bufferView":143,
			"componentType":5126,
			"count":105,
			"type":"VEC2"
		},
		{
			"bufferView":144,
			"componentType":5126,
			"count":105,
			"type":"VEC4"
		},
		{
			"bufferView":145,
			"componentType":5123,
			"count":156,
			"type":"SCALAR"
		},
		{
			"bufferView":146,
			"componentType":5126,
			"count":121,
			"max":[
				-29.28215789794922,
				31.7139892578125,
				0
			],
			"min":[
				-41.28215789794922,
				19.713987350463867,
				-12.500001907348633
			],
			"type":"VEC3"
		},
		{
			"bufferView":147,
			"componentType":5126,
			"count":121,
			"type":"VEC3"
		},
		{
			"bufferView":148,
			"componentType":5126,
			"count":121,
			"type":"VEC2"
		},
		{
			"bufferView":149,
			"componentType":5126,
			"count":121,
			"type":"VEC4"
		},
		{
			"bufferView":150,
			"componentType":5123,
			"count":156,
			"type":"SCALAR"
		},
		{
			"bufferView":151,
			"componentType":5126,
			"count":121,
			"max":[
				-30.87894630432129,
				-17.395606994628906,
				0
			],
			"min":[
				-42.75101852416992,
				-29.267677307128906,
				-12.500001907348633
			],
			"type":"VEC3"
		},
		{
			"bufferView":152,
			"componentType":5126,
			"count":121,
			"type":"VEC3"
		},
		{
			"bufferView":153,
			"componentType":5126,
			"count":121,
			"type":"VEC2"
		},
		{
			"bufferView":154,
			"componentType":5126,
			"count":121,
			"type":"VEC4"
		},
		{
			"bufferView":155,
			"componentType":5123,
			"count":156,
			"type":"SCALAR"
		}
	],
	"bufferViews":[
		{
			"buffer":0,
			"byteLength":768,
			"byteOffset":0,
			"target":34962
		},
		{
			"buffer":0,
			"byteLength":768,
			"byteOffset":768,
			"target":34962
		},
		{
			"buffer":0,
			"byteLength":512,
			"byteOffset":1536,
			"target":34962
		},
		{
			"buffer":0,
			"byteLength":1024,
			"byteOffset":2048,
			"target":34962
		},
		{
			"buffer":0,
			"byteLength":192,
			"byteOffset":3072,
			"target":34963
		},
		{
			"buffer":0,
			"byteLength":768,
			"byteOffset":3264,
			"target":34962
		},
		{
			"buffer":0,
			"byteLength":768,
			"byteOffset":4032,
			"target":34962
		},
		{
			"buffer":0,
			"byteLength":512,
			"byteOffset":4800,
			"target":34962
		},
		{
			"buffer":0,
			"byteLength":1024,
			"byteOffset":5312,
			"target":34962
		},
		{
			"buffer":0,
			"byteLength":768,
			"byteOffset":6336,
			"target":34962
		},
		{
			"buffer":0,
			"byteLength":768,
			"byteOffset":7104,
			"target":34962
		},
		{
			"buffer":0,
			"byteLength":512,
			"byteOffset":7872,
			"target":34962
		},
		{
			"buffer":0,
			"byteLength":1024,
			"byteOffset":8384,
			"target":34962
		},
		{
			"buffer":0,
			"byteLength":768,
			"byteOffset":9408,
			"target":34962
		},
		{
			"buffer":0,
			"byteLength":768,
			"byteOffset":10176,
			"target":34962
		},
		{
			"buffer":0,
			"byteLength":512,
			"byteOffset":10944,
			"target":34962
		},
		{
			"buffer":0,
			"byteLength":1024,
			"byteOffset":11456,
			"target":34962
		},
		{
			"buffer":0,
			"byteLength":768,
			"byteOffset":12480,
			"target":34962
		},
		{
			"buffer":0,
			"byteLength":768,
			"byteOffset":13248,
			"target":34962
		},
		{
			"buffer":0,
			"byteLength":512,
			"byteOffset":14016,
			"target":34962
		},
		{
			"buffer":0,
			"byteLength":1024,
			"byteOffset":14528,
			"target":34962
		},
		{
			"buffer":0,
			"byteLength":768,
			"byteOffset":15552,
			"target":34962
		},
		{
			"buffer":0,
			"byteLength":768,
			"byteOffset":16320,
			"target":34962
		},
		{
			"buffer":0,
			"byteLength":512,
			"byteOffset":17088,
			"target":34962
		},
		{
			"buffer":0,
			"byteLength":1024,
			"byteOffset":17600,
			"target":34962
		},
		{
			"buffer":0,
			"byteLength":768,
			"byteOffset":18624,
			"target":34962
		},
		{
			"buffer":0,
			"byteLength":768,
			"byteOffset":19392,
			"target":34962
		},
		{
			"buffer":0,
			"byteLength":512,
			"byteOffset":20160,
			"target":34962
		},
		{
			"buffer":0,
			"byteLength":1024,
			"byteOffset":20672,
			"target":34962
		},
		{
			"buffer":0,
			"byteLength":768,
			"byteOffset":21696,
			"target":34962
		},
		{
			"buffer":0,
			"byteLength":768,
			"byteOffset":22464,
			"target":34962
		},
		{
			"buffer":0,
			"byteLength":512,
			"byteOffset":23232,
			"target":34962
		},
		{
			"buffer":0,
			"byteLength":1024,
			"byteOffset":23744,
			"target":34962
		},
		{
			"buffer":0,
			"byteLength":768,
			"byteOffset":24768,
			"target":34962
		},
		{
			"buffer":0,
			"byteLength":768,
			"byteOffset":25536,
			"target":34962
		},
		{
			"buffer":0,
			"byteLength":512,
			"byteOffset":26304,
			"target":34962
		},
		{
			"buffer":0,
			"byteLength":1024,
			"byteOffset":26816,
			"target":34962
		},
		{
			"buffer":0,
			"byteLength":768,
			"byteOffset":27840,
			"target":34962
		},
		{
			"buffer":0,
			"byteLength":768,
			"byteOffset":28608,
			"target":34962
		},
		{
			"buffer":0,
			"byteLength":512,
			"byteOffset":29376,
			"target":34962
		},
		{
			"buffer":0,
			"byteLength":1024,
			"byteOffset":29888,
			"target":34962
		},
		{
			"buffer":0,
			"byteLength":768,
			"byteOffset":30912,
			"target":34962
		},
		{
			"buffer":0,
			"byteLength":768,
			"byteOffset":31680,
			"target":34962
		},
		{
			"buffer":0,
			"byteLength":512,
			"byteOffset":32448,
			"target":34962
		},
		{
			"buffer":0,
			"byteLength":1024,
			"byteOffset":32960,
			"target":34962
		},
		{
			"buffer":0,
			"byteLength":768,
			"byteOffset":33984,
			"target":34962
		},
		{
			"buffer":0,
			"byteLength":768,
			"byteOffset":34752,
			"target":34962
		},
		{
			"buffer":0,
			"byteLength":512,
			"byteOffset":35520,
			"target":34962
		},
		{
			"buffer":0,
			"byteLength":1024,
			"byteOffset":36032,
			"target":34962
		},
		{
			"buffer":0,
			"byteLength":768,
			"byteOffset":37056,
			"target":34962
		},
		{
			"buffer":0,
			"byteLength":768,
			"byteOffset":37824,
			"target":34962
		},
		{
			"buffer":0,
			"byteLength":512,
			"byteOffset":38592,
			"target":34962
		},
		{
			"buffer":0,
			"byteLength":1024,
			"byteOffset":39104,
			"target":34962
		},
		{
			"buffer":0,
			"byteLength":768,
			"byteOffset":40128,
			"target":34962
		},
		{
			"buffer":0,
			"byteLength":768,
			"byteOffset":40896,
			"target":34962
		},
		{
			"buffer":0,
			"byteLength":512,
			"byteOffset":41664,
			"target":34962
		},
		{
			"buffer":0,
			"byteLength":1024,
			"byteOffset":42176,
			"target":34962
		},
		{
			"buffer":0,
			"byteLength":768,
			"byteOffset":43200,
			"target":34962
		},
		{
			"buffer":0,
			"byteLength":768,
			"byteOffset":43968,
			"target":34962
		},
		{
			"buffer":0,
			"byteLength":512,
			"byteOffset":44736,
			"target":34962
		},
		{
			"buffer":0,
			"byteLength":1024,
			"byteOffset":45248,
			"target":34962
		},
		{
			"buffer":0,
			"byteLength":768,
			"byteOffset":46272,
			"target":34962
		},
		{
			"buffer":0,
			"byteLength":768,
			"byteOffset":47040,
			"target":34962
		},
		{
			"buffer":0,
			"byteLength":512,
			"byteOffset":47808,
			"target":34962
		},
		{
			"buffer":0,
			"byteLength":1024,
			"byteOffset":48320,
			"target":34962
		},
		{
			"buffer":0,
			"byteLength":768,
			"byteOffset":49344,
			"target":34962
		},
		{
			"buffer":0,
			"byteLength":768,
			"byteOffset":50112,
			"target":34962
		},
		{
			"buffer":0,
			"byteLength":512,
			"byteOffset":50880,
			"target":34962
		},
		{
			"buffer":0,
			"byteLength":1024,
			"byteOffset":51392,
			"target":34962
		},
		{
			"buffer":0,
			"byteLength":768,
			"byteOffset":52416,
			"target":34962
		},
		{
			"buffer":0,
			"byteLength":768,
			"byteOffset":53184,
			"target":34962
		},
		{
			"buffer":0,
			"byteLength":512,
			"byteOffset":53952,
			"target":34962
		},
		{
			"buffer":0,
			"byteLength":1024,
			"byteOffset":54464,
			"target":34962
		},
		{
			"buffer":0,
			"byteLength":768,
			"byteOffset":55488,
			"target":34962
		},
		{
			"buffer":0,
			"byteLength":768,
			"byteOffset":56256,
			"target":34962
		},
		{
			"buffer":0,
			"byteLength":512,
			"byteOffset":57024,
			"target":34962
		},
		{
			"buffer":0,
			"byteLength":1024,
			"byteOffset":57536,
			"target":34962
		},
		{
			"buffer":0,
			"byteLength":768,
			"byteOffset":58560,
			"target":34962
		},
		{
			"buffer":0,
			"byteLength":768,
			"byteOffset":59328,
			"target":34962
		},
		{
			"buffer":0,
			"byteLength":512,
			"byteOffset":60096,
			"target":34962
		},
		{
			"buffer":0,
			"byteLength":1024,
			"byteOffset":60608,
			"target":34962
		},
		{
			"buffer":0,
			"byteLength":768,
			"byteOffset":61632,
			"target":34962
		},
		{
			"buffer":0,
			"byteLength":768,
			"byteOffset":62400,
			"target":34962
		},
		{
			"buffer":0,
			"byteLength":512,
			"byteOffset":63168,
			"target":34962
		},
		{
			"buffer":0,
			"byteLength":1024,
			"byteOffset":63680,
			"target":34962
		},
		{
			"buffer":0,
			"byteLength":960,
			"byteOffset":64704,
			"target":34962
		},
		{
			"buffer":0,
			"byteLength":960,
			"byteOffset":65664,
			"target":34962
		},
		{
			"buffer":0,
			"byteLength":640,
			"byteOffset":66624,
			"target":34962
		},
		{
			"buffer":0,
			"byteLength":1280,
			"byteOffset":67264,
			"target":34962
		},
		{
			"buffer":0,
			"byteLength":240,
			"byteOffset":68544,
			"target":34963
		},
		{
			"buffer":0,
			"byteLength":960,
			"byteOffset":68784,
			"target":34962
		},
		{
			"buffer":0,
			"byteLength":960,
			"byteOffset":69744,
			"target":34962
		},
		{
			"buffer":0,
			"byteLength":640,
			"byteOffset":70704,
			"target":34962
		},
		{
			"buffer":0,
			"byteLength":1280,
			"byteOffset":71344,
			"target":34962
		},
		{
			"buffer":0,
			"byteLength":960,
			"byteOffset":72624,
			"target":34962
		},
		{
			"buffer":0,
			"byteLength":960,
			"byteOffset":73584,
			"target":34962
		},
		{
			"buffer":0,
			"byteLength":640,
			"byteOffset":74544,
			"target":34962
		},
		{
			"buffer":0,
			"byteLength":1280,
			"byteOffset":75184,
			"target":34962
		},
		{
			"buffer":0,
			"byteLength":960,
			"byteOffset":76464,
			"target":34962
		},
		{
			"buffer":0,
			"byteLength":960,
			"byteOffset":77424,
			"target":34962
		},
		{
			"buffer":0,
			"byteLength":640,
			"byteOffset":78384,
			"target":34962
		},
		{
			"buffer":0,
			"byteLength":1280,
			"byteOffset":79024,
			"target":34962
		},
		{
			"buffer":0,
			"byteLength":48,
			"byteOffset":80304,
			"target":34962
		},
		{
			"buffer":0,
			"byteLength":48,
			"byteOffset":80352,
			"target":34962
		},
		{
			"buffer":0,
			"byteLength":32,
			"byteOffset":80400,
			"target":34962
		},
		{
			"buffer":0,
			"byteLength":64,
			"byteOffset":80432,
			"target":34962
		},
		{
			"buffer":0,
			"byteLength":12,
			"byteOffset":80496,
			"target":34963
		},
		{
			"buffer":0,
			"byteLength":1260,
			"byteOffset":80508,
			"target":34962
		},
		{
			"buffer":0,
			"byteLength":1260,
			"byteOffset":81768,
			"target":34962
		},
		{
			"buffer":0,
			"byteLength":840,
			"byteOffset":83028,
			"target":34962
		},
		{
			"buffer":0,
			"byteLength":1680,
			"byteOffset":83868,
			"target":34962
		},
		{
			"buffer":0,
			"byteLength":312,
			"byteOffset":85548,
			"target":34963
		},
		{
			"buffer":0,
			"byteLength":1260,
			"byteOffset":85860,
			"target":34962
		},
		{
			"buffer":0,
			"byteLength":1260,
			"byteOffset":87120,
			"target":34962
		},
		{
			"buffer":0,
			"byteLength":840,
			"byteOffset":88380,
			"target":34962
		},
		{
			"buffer":0,
			"byteLength":1680,
			"byteOffset":89220,
			"target":34962
		},
		{
			"buffer":0,
			"byteLength":312,
			"byteOffset":90900,
			"target":34963
		},
		{
			"buffer":0,
			"byteLength":1260,
			"byteOffset":91212,
			"target":34962
		},
		{
			"buffer":0,
			"byteLength":1260,
			"byteOffset":92472,
			"target":34962
		},
		{
			"buffer":0,
			"byteLength":840,
			"byteOffset":93732,
			"target":34962
		},
		{
			"buffer":0,
			"byteLength":1680,
			"byteOffset":94572,
			"target":34962
		},
		{
			"buffer":0,
			"byteLength":312,
			"byteOffset":96252,
			"target":34963
		},
		{
			"buffer":0,
			"byteLength":1260,
			"byteOffset":96564,
			"target":34962
		},
		{
			"buffer":0,
			"byteLength":1260,
			"byteOffset":97824,
			"target":34962
		},
		{
			"buffer":0,
			"byteLength":840,
			"byteOffset":99084,
			"target":34962
		},
		{
			"buffer":0,
			"byteLength":1680,
			"byteOffset":99924,
			"target":34962
		},
		{
			"buffer":0,
			"byteLength":1260,
			"byteOffset":101604,
			"target":34962
		},
		{
			"buffer":0,
			"byteLength":1260,
			"byteOffset":102864,
			"target":34962
		},
		{
			"buffer":0,
			"byteLength":840,
			"byteOffset":104124,
			"target":34962
		},
		{
			"buffer":0,
			"byteLength":1680,
			"byteOffset":104964,
			"target":34962
		},
		{
			"buffer":0,
			"byteLength":312,
			"byteOffset":106644,
			"target":34963
		},
		{
			"buffer":0,
			"byteLength":1260,
			"byteOffset":106956,
			"target":34962
		},
		{
			"buffer":0,
			"byteLength":1260,
			"byteOffset":108216,
			"target":34962
		},
		{
			"buffer":0,
			"byteLength":840,
			"byteOffset":109476,
			"target":34962
		},
		{
			"buffer":0,
			"byteLength":1680,
			"byteOffset":110316,
			"target":34962
		},
		{
			"buffer":0,
			"byteLength":312,
			"byteOffset":111996,
			"target":34963
		},
		{
			"buffer":0,
			"byteLength":1260,
			"byteOffset":112308,
			"target":34962
		},
		{
			"buffer":0,
			"byteLength":1260,
			"byteOffset":113568,
			"target":34962
		},
		{
			"buffer":0,
			"byteLength":840,
			"byteOffset":114828,
			"target":34962
		},
		{
			"buffer":0,
			"byteLength":1680,
			"byteOffset":115668,
			"target":34962
		},
		{
			"buffer":0,
			"byteLength":312,
			"byteOffset":117348,
			"target":34963
		},
		{
			"buffer":0,
			"byteLength":1260,
			"byteOffset":117660,
			"target":34962
		},
		{
			"buffer":0,
			"byteLength":1260,
			"byteOffset":118920,
			"target":34962
		},
		{
			"buffer":0,
			"byteLength":840,
			"byteOffset":120180,
			"target":34962
		},
		{
			"buffer":0,
			"byteLength":1680,
			"byteOffset":121020,
			"target":34962
		},
		{
			"buffer":0,
			"byteLength":312,
			"byteOffset":122700,
			"target":34963
		},
		{
			"buffer":0,
			"byteLength":1452,
			"byteOffset":123012,
			"target":34962
		},
		{
			"buffer":0,
			"byteLength":1452,
			"byteOffset":124464,
			"target":34962
		},
		{
			"buffer":0,
			"byteLength":968,
			"byteOffset":125916,
			"target":34962
		},
		{
			"buffer":0,
			"byteLength":1936,
			"byteOffset":126884,
			"target":34962
		},
		{
			"buffer":0,
			"byteLength":312,
			"byteOffset":128820,
			"target":34963
		},
		{
			"buffer":0,
			"byteLength":1452,
			"byteOffset":129132,
			"target":34962
		},
		{
			"buffer":0,
			"byteLength":1452,
			"byteOffset":130584,
			"target":34962
		},
		{
			"buffer":0,
			"byteLength":968,
			"byteOffset":132036,
			"target":34962
		},
		{
			"buffer":0,
			"byteLength":1936,
			"byteOffset":133004,
			"target":34962
		},
		{
			"buffer":0,
			"byteLength":312,
			"byteOffset":134940,
			"target":34963
		}
	],
	"samplers":[
		{
			"magFilter":9729,
			"minFilter":9987
		}
	],
	"buffers":[
		{
			"byteLength":135252,
			"uri":"city.bin"
		}
	]
}
