# Created by Metasequoia

mtllib plank.mtl

v -0.923412 0.080172 0.008932
v -0.923412 -0.080172 0.008932
v 0.923412 0.080172 0.008932
v 0.923412 -0.080172 0.008932
v 0.923412 0.080172 -0.008932
v 0.923412 -0.080172 -0.008932
v -0.923412 0.080172 -0.008932
v -0.923412 -0.080172 -0.008932
# 8 vertices

vt -2.00000 1.00000
vt 3.00000 1.00000
vt 3.00000 0.00000
vt -2.00000 0.00000
vt 0.00000 2.50000
vt 1.00000 2.50000
vt 1.00000 -1.50000
vt 0.00000 -1.50000
vt -89.50000 540.50000
vt 90.50000 540.50000
vt 90.50000 -539.50000
vt -89.50000 -539.50000
vt -1499999.50000 8.50000
vt 1500000.50000 8.50000
vt 1500000.50000 -7.50000
vt -1499999.50000 -7.50000
vt -2.00000 4.50000
vt 3.00000 4.50000
vt 3.00000 -3.50000
vt -2.00000 -3.50000
# 20 texture vertices

vn 0.00000 0.00000 1.00000
vn 1.00000 0.00000 0.00000
vn 0.00000 0.00000 -1.00000
vn -1.00000 0.00000 0.00000
vn 0.00000 1.00000 0.00000
vn 0.00000 -1.00000 0.00000
# 6 normal vertices

g obj1
s 1
usemtl mat1
f 3/2/1 2/4/1 4/3/1
f 3/2/1 1/1/1 2/4/1
f 5/6/2 4/8/2 6/7/2
f 5/6/2 3/5/2 4/8/2
f 7/2/3 6/4/3 8/3/3
f 7/2/3 5/1/3 6/4/3
f 1/10/4 8/12/4 2/11/4
f 1/10/4 7/9/4 8/12/4
f 1/16/5 5/14/5 7/13/5
f 1/16/5 3/15/5 5/14/5
f 4/18/6 8/20/6 6/19/6
f 4/18/6 2/17/6 8/20/6
# 12 elements

