{
  "asset": { "version": "2.0" },
  "scene": 0,
  "scenes": [{ "nodes": [0,1,2,3,4,5,6,7,8] }],
  "nodes": [{"mesh":0},{"mesh":1},{"mesh":2},{"mesh":3},{"mesh":4},{"mesh":5},{"mesh":6},{"mesh":7},{"mesh":8}],
  "meshes": [{"primitives":[{"attributes":{"POSITION":0,"TEXCOORD_0":1},"indices":2,"material":0}]},{"primitives":[{"attributes":{"POSITION":3,"TEXCOORD_0":4},"indices":5,"material":0}]},{"primitives":[{"attributes":{"POSITION":6,"TEXCOORD_0":7},"indices":8,"material":0}]},{"primitives":[{"attributes":{"POSITION":9,"TEXCOORD_0":10},"indices":11,"material":0}]},{"primitives":[{"attributes":{"POSITION":12,"TEXCOORD_0":13},"indices":14,"material":0}]},{"primitives":[{"attributes":{"POSITION":15,"TEXCOORD_0":16},"indices":17,"material":0}]},{"primitives":[{"attributes":{"POSITION":18,"TEXCOORD_0":19},"indices":20,"material":0}]},{"primitives":[{"attributes":{"POSITION":21,"TEXCOORD_0":22},"indices":23,"material":0}]},{"primitives":[{"attributes":{"POSITION":24,"TEXCOORD_0":25},"indices":26,"material":0}]}],
  "materials": [{
    "name" : "glock",
    "pbrMetallicRoughness": {
      "baseColorTexture": { "index": 0 },
      "metallicFactor": 0.0,
      "roughnessFactor": 1.0
    }
  }],
  "samplers": [{ "magFilter": 9728, "minFilter": 9728 }],
  "textures": [{ "source": 0, "sampler": 0 }],
  "images": [{ "uri": "glock.png" }],
  "accessors": [{"bufferView":0,"byteOffset":0,"componentType":5126,"count":36,"type":"VEC3","min":[0.3984375,-0.221875,0.40625],"max":[0.45625,-0.171875,0.425]},{"bufferView":1,"byteOffset":0,"componentType":5126,"count":36,"type":"VEC2"},{"bufferView":2,"byteOffset":0,"componentType":5123,"count":36,"type":"SCALAR"},{"bufferView":3,"byteOffset":0,"componentType":5126,"count":36,"type":"VEC3","min":[-0.515625,-0.421875,0.25],"max":[0.484375,-0.21875,0.5]},{"bufferView":4,"byteOffset":0,"componentType":5126,"count":36,"type":"VEC2"},{"bufferView":5,"byteOffset":0,"componentType":5123,"count":36,"type":"SCALAR"},{"bufferView":6,"byteOffset":0,"componentType":5126,"count":36,"type":"VEC3","min":[-0.671875,-0.9765625,0.25],"max":[-0.21875,-0.421875,0.5]},{"bufferView":7,"byteOffset":0,"componentType":5126,"count":36,"type":"VEC2"},{"bufferView":8,"byteOffset":0,"componentType":5123,"count":36,"type":"SCALAR"},{"bufferView":9,"byteOffset":0,"componentType":5126,"count":60,"type":"VEC3","min":[0.487436166,-0.344,0.333],"max":[0.524125,-0.281,0.417]},{"bufferView":10,"byteOffset":0,"componentType":5126,"count":60,"type":"VEC2"},{"bufferView":11,"byteOffset":0,"componentType":5123,"count":60,"type":"SCALAR"},{"bufferView":12,"byteOffset":0,"componentType":5126,"count":36,"type":"VEC3","min":[0.3984375,-0.221875,0.328125],"max":[0.45625,-0.171875,0.346875]},{"bufferView":13,"byteOffset":0,"componentType":5126,"count":36,"type":"VEC2"},{"bufferView":14,"byteOffset":0,"componentType":5123,"count":36,"type":"SCALAR"},{"bufferView":15,"byteOffset":0,"componentType":5126,"count":36,"type":"VEC3","min":[-0.284375,-0.5859375,0.35625],"max":[-0.0625,-0.54375,0.4015625]},{"bufferView":16,"byteOffset":0,"componentType":5126,"count":36,"type":"VEC2"},{"bufferView":17,"byteOffset":0,"componentType":5123,"count":36,"type":"SCALAR"},{"bufferView":18,"byteOffset":0,"componentType":5126,"count":36,"type":"VEC3","min":[-0.0859375,-0.5859375,0.35625],"max":[-0.03125,-0.25,0.4015625]},{"bufferView":19,"byteOffset":0,"componentType":5126,"count":36,"type":"VEC2"},{"bufferView":20,"byteOffset":0,"componentType":5123,"count":36,"type":"SCALAR"},{"bufferView":21,"byteOffset":0,"componentType":5126,"count":36,"type":"VEC3","min":[-0.370563272,-0.528452932,0.35625],"max":[-0.136188272,-0.333140432,0.4015625]},{"bufferView":22,"byteOffset":0,"componentType":5126,"count":36,"type":"VEC2"},{"bufferView":23,"byteOffset":0,"componentType":5123,"count":36,"type":"SCALAR"},{"bufferView":24,"byteOffset":0,"componentType":5126,"count":84,"type":"VEC3","min":[0.5175,-0.386875,0.3075],"max":[1.1796875,-0.245,0.4425]},{"bufferView":25,"byteOffset":0,"componentType":5126,"count":84,"type":"VEC2"},{"bufferView":26,"byteOffset":0,"componentType":5123,"count":84,"type":"SCALAR"}],
  "bufferViews": [{"buffer":0,"byteOffset":0,"byteLength":432,"target":34962},{"buffer":0,"byteOffset":432,"byteLength":288,"target":34962},{"buffer":0,"byteOffset":720,"byteLength":72,"target":34963},{"buffer":0,"byteOffset":792,"byteLength":432,"target":34962},{"buffer":0,"byteOffset":1224,"byteLength":288,"target":34962},{"buffer":0,"byteOffset":1512,"byteLength":72,"target":34963},{"buffer":0,"byteOffset":1584,"byteLength":432,"target":34962},{"buffer":0,"byteOffset":2016,"byteLength":288,"target":34962},{"buffer":0,"byteOffset":2304,"byteLength":72,"target":34963},{"buffer":0,"byteOffset":2376,"byteLength":720,"target":34962},{"buffer":0,"byteOffset":3096,"byteLength":480,"target":34962},{"buffer":0,"byteOffset":3576,"byteLength":120,"target":34963},{"buffer":0,"byteOffset":3696,"byteLength":432,"target":34962},{"buffer":0,"byteOffset":4128,"byteLength":288,"target":34962},{"buffer":0,"byteOffset":4416,"byteLength":72,"target":34963},{"buffer":0,"byteOffset":4488,"byteLength":432,"target":34962},{"buffer":0,"byteOffset":4920,"byteLength":288,"target":34962},{"buffer":0,"byteOffset":5208,"byteLength":72,"target":34963},{"buffer":0,"byteOffset":5280,"byteLength":432,"target":34962},{"buffer":0,"byteOffset":5712,"byteLength":288,"target":34962},{"buffer":0,"byteOffset":6000,"byteLength":72,"target":34963},{"buffer":0,"byteOffset":6072,"byteLength":432,"target":34962},{"buffer":0,"byteOffset":6504,"byteLength":288,"target":34962},{"buffer":0,"byteOffset":6792,"byteLength":72,"target":34963},{"buffer":0,"byteOffset":6864,"byteLength":1008,"target":34962},{"buffer":0,"byteOffset":7872,"byteLength":672,"target":34962},{"buffer":0,"byteOffset":8544,"byteLength":168,"target":34963}],
  "buffers": [{ "uri": "glock.bin", "byteLength": 8712 }]
}