{
	"asset":{
		"generator":"Khronos glTF Blender I/O v4.1.63",
		"version":"2.0"
	},
	"scene":0,
	"scenes":[
		{
			"name":"Scene",
			"nodes":[
				0
			]
		}
	],
	"nodes":[
		{
			"mesh":0,
			"name":"Gate_2x4_Beveled"
		}
	],
	"materials":[
		{
			"doubleSided":true,
			"name":"Walls",
			"pbrMetallicRoughness":{
				"baseColorTexture":{
					"index":0
				},
				"metallicFactor":0,
				"roughnessFactor":0.5
			}
		}
	],
	"meshes":[
		{
			"name":"Cube.029",
			"primitives":[
				{
					"attributes":{
						"POSITION":0,
						"NORMAL":1,
						"TEXCOORD_0":2
					},
					"indices":3,
					"material":0
				}
			]
		}
	],
	"textures":[
		{
			"sampler":0,
			"source":0
		}
	],
	"images":[
		{
			"mimeType":"image/png",
			"name":"Walls",
			"uri":"Walls.png"
		}
	],
	"accessors":[
		{
			"bufferView":0,
			"componentType":5126,
			"count":359,
			"max":[
				0.27774593234062195,
				2,
				2
			],
			"min":[
				-0.27774593234062195,
				-0.05050722882151604,
				-2
			],
			"type":"VEC3"
		},
		{
			"bufferView":1,
			"componentType":5126,
			"count":359,
			"type":"VEC3"
		},
		{
			"bufferView":2,
			"componentType":5126,
			"count":359,
			"type":"VEC2"
		},
		{
			"bufferView":3,
			"componentType":5123,
			"count":618,
			"type":"SCALAR"
		}
	],
	"bufferViews":[
		{
			"buffer":0,
			"byteLength":4308,
			"byteOffset":0,
			"target":34962
		},
		{
			"buffer":0,
			"byteLength":4308,
			"byteOffset":4308,
			"target":34962
		},
		{
			"buffer":0,
			"byteLength":2872,
			"byteOffset":8616,
			"target":34962
		},
		{
			"buffer":0,
			"byteLength":1236,
			"byteOffset":11488,
			"target":34963
		}
	],
	"samplers":[
		{
			"magFilter":9729,
			"minFilter":9987
		}
	],
	"buffers":[
		{
			"byteLength":12724,
			"uri":"Gate_2x4_Beveled.bin"
		}
	]
}
